<?xml version="1.0" standalone="no"?>
<!DOCTYPE svg PUBLIC "-//W3C//DTD SVG 1.1//EN" "http://www.w3.org/Graphics/SVG/1.1/DTD/svg11.dtd" >
<svg xmlns="http://www.w3.org/2000/svg" xmlns:xlink="http://www.w3.org/1999/xlink" version="1.1">
<metadata>
Created by FontForge 20161003 at Fri Jul 12 12:32:53 2019
 By www-data
Copyright (c) 2018 by Hislide. All rights reserved.
</metadata>
<defs>
<font id="fontkikolight" horiz-adv-x="1200" >
  <font-face 
    font-family="font kiko light"
    font-weight="400"
    font-stretch="normal"
    units-per-em="1000"
    panose-1="0 0 5 0 0 0 0 0 0 0"
    ascent="800"
    descent="-200"
    bbox="0 -65 1119 1005"
    underline-thickness="50"
    underline-position="-100"
    unicode-range="U+0020-F380"
  />
<missing-glyph horiz-adv-x="533" 
d="M437 -65h-338v1065h338v-1065zM178 274v-121h177v121h-177zM320 188h-107v51h107v-51zM248 458v-60h36v25h36v-50h-107v85h-35v-120h177v120h-107zM320 588v-70h-142v-37h177v107h-35zM178 652v-35h70v-40h-70v-35h106v75h71v35h-177zM248 717h-35v38h35v-38zM178 791
v-110h177v36h-71v74h-106zM179 929v-35h69v-40h-70v-35h177v35h-71v40h71v35h-176zM178 129v-35h74l-74 -50v-36h177v36h-109l75 50h34v35h-177z" />
    <glyph glyph-name=".notdef" horiz-adv-x="533" 
d="M437 -65h-338v1065h338v-1065zM178 274v-121h177v121h-177zM320 188h-107v51h107v-51zM248 458v-60h36v25h36v-50h-107v85h-35v-120h177v120h-107zM320 588v-70h-142v-37h177v107h-35zM178 652v-35h70v-40h-70v-35h106v75h71v35h-177zM248 717h-35v38h35v-38zM178 791
v-110h177v36h-71v74h-106zM179 929v-35h69v-40h-70v-35h177v35h-71v40h71v35h-176zM178 129v-35h74l-74 -50v-36h177v36h-109l75 50h34v35h-177z" />
    <glyph glyph-name="space" unicode=" " horiz-adv-x="0" 
 />
    <glyph glyph-name="u1F686" unicode="&#xf001;" horiz-adv-x="888" 
d="M788 31q0 -15 -13 -25q-9 -6 -18 -6q-16 0 -26 13l-58 81h-354q-13 0 -22 9t-9 22t9 22t22 9h310l-45 63h-280l-147 -206q-10 -13 -26 -13q-9 0 -18 6q-13 10 -13 25q0 9 6 18l121 170h-2q-39 0 -66 27.5t-27 66.5v593q-1 39 26.5 66.5t66.5 27.5h438q39 0 66.5 -27.5
t27.5 -66.5l-1 -593q1 -39 -26.5 -66.5t-66.5 -27.5h-2l121 -170q6 -9 6 -18zM694 500v250h-500v-250h500zM203 928.5q-9 -9.5 -9 -22.5v-93h500v93q0 13 -9 22.5t-22 9.5h-438q-13 0 -22 -9.5zM203 290.5q9 -9.5 22 -9.5h438q13 0 22 9.5t9 22.5v125h-500v-125
q0 -13 9 -22.5zM279 397q-9 9 -22 9t-22.5 -9t-9.5 -22t9 -22t22 -9t22.5 9t9.5 22t-9 22zM654 397q-9 9 -22 9t-22.5 -9t-9.5 -22t9 -22t22 -9t22.5 9t9.5 22t-9 22zM359.5 853q9.5 -9 22.5 -9h124q13 0 22.5 9t9.5 22t-9 22t-22 9h-125q-13 0 -22.5 -9t-9.5 -22t9.5 -22z
" />
    <glyph glyph-name="uniF002" unicode="&#xf002;" horiz-adv-x="1187" 
d="M1082 678q5 -7 5 -13q0 -2 -2 -8l-11 -35q-4 -13 -14.5 -22.5t-24.5 -13.5l-38 -9v-284q0 -20 -8 -37t-23 -29v-102q0 -13 -9 -22t-22 -9h-63q-13 0 -22 9t-9 22v68q-123 -21 -249 -21q-129 0 -251 22v-69q0 -13 -9 -22t-22 -9h-63q-13 0 -22 9t-9 22v102q-15 12 -23 29
t-8 37v285l-33 8q-14 4 -24 13.5t-15 22.5l-12 35q-1 2 -1 7q0 9 4 14q7 8 19 10h113l32 145q7 32 33 52.5t59 20.5h462q33 0 59 -20.5t33 -52.5l32 -145h117q12 0 19 -10zM591 600q151 0 306 20l-44 199q-2 11 -11 18t-20 7h-462q-11 0 -19.5 -7t-11.5 -18l-44 -199
q157 -20 306 -20zM591 234q162 0 327 37q17 5 17 22v269q-178 -25 -343 -25q-167 0 -345 25v-269q0 -17 17 -22q166 -37 327 -37zM426 349.5q-9 13.5 -25 19.5l-122 49v-45q0 -21 13.5 -37.5t34.5 -20.5l108 -22v26q0 17 -9 30.5zM889.5 335.5q-13.5 -16.5 -34.5 -20.5
l-108 -22v26q0 16 9.5 30t24.5 20l122 49v-45q0 -21 -13.5 -37.5zM506.5 346q9.5 9 22.5 9h124q13 0 22.5 -9t9.5 -22t-9.5 -22t-22.5 -9h-124q-13 0 -22.5 9t-9.5 22t9.5 22z" />
    <glyph glyph-name="uniF003" unicode="&#xf003;" 
d="M1100 368v-55q0 -26 -18 -44.5t-44 -18.5h-69q-10 -28 -34 -45t-54 -17q-29 0 -53.5 17t-34.5 45h-99q-13 0 -22 9t-9 22v32h-225q6 -16 6 -32q0 -36 -24.5 -65.5t-70.5 -29.5q-37 0 -65.5 27t-28.5 65q0 18 7 35h-131q-13 -1 -22 8.5t-9 22.5v437q0 13 9 22.5t22 9.5
h563q13 0 22 -9.5t9 -22.5v-93h111q29 -1 54.5 -14t42.5 -35l138 -183q29 -40 29 -88zM372 259q9 9 9 22t-9 22t-22 9q-13 1 -22 -8t-9 -23q0 -13 9 -22t22 -9t22 9zM163 438v-63h500v63h-500zM163 750l1 -248h500l-1 248h-500zM819 500h140l-76 100q-18 24 -47 24l-17 1
v-125zM904 259q9 9 8 22q1 13 -8 22t-23 9q-13 1 -22 -8t-9 -23q0 -13 9 -22t22 -9q14 0 23 9zM1021 418l-15 20h-218q-13 -1 -22.5 8t-9.5 23v156h-31v-312h68q10 28 34.5 45t53.5 17q30 0 54 -17t34 -45h69v55q-2 31 -17 50z" />
    <glyph glyph-name="uniF004" unicode="&#xf004;" horiz-adv-x="1138" 
d="M937.5 572.5q40.5 -21.5 67 -59.5t31.5 -84q2 -16 2 -24q0 -64 -39.5 -114.5t-102.5 -66.5q-22 -6 -46 -6q-57 0 -105 33t-70 88q-13 36 -13 67q0 51 26.5 96t73.5 70l-8 25l-38 -26l-91 -137q6 -13 6 -27q0 -18 -8.5 -33t-24.5 -23q-13 -7 -29 -7t-30.5 8t-23.5 23h-43
q-10 -60 -53.5 -102.5t-103.5 -51.5q-18 -2 -28 -2q-53 0 -98 28t-69 76q-20 37 -20 84q0 37 14.5 71.5t41.5 61.5q26 26 60.5 40t70.5 14q46 0 86 -21l60 79l-41 98h-42q-13 0 -22 9t-9 22t9 22.5t22 9.5l156 -1q13 1 22 -8t10 -23q0 -13 -9.5 -22t-22.5 -9h-47l26 -62h238
l-28 83q-1 3 -1 9q0 11 6 20q10 13 25 13l94 -1q13 1 22 -8t9 -23q0 -13 -9 -22t-22 -9h-51l53 -159q15 3 29 3q47 0 87.5 -21.5zM350 437h165q1 3 2 4.5t2 2.5l-58 141zM363.5 307.5q33.5 26.5 44.5 67.5h-121q-8 0 -15.5 4.5t-11.5 12.5q-4 7 -4 15q0 11 6 18l73 97
q-24 9 -48 9q-53 0 -89 -36t-36 -89q0 -24 9 -48q15 -35 46.5 -56t69.5 -21q43 0 76.5 26.5zM511 625l64 -153l93 139l8 9l8 5h-173zM938.5 317.5q36.5 36.5 36.5 88.5t-36.5 88.5t-88.5 36.5q-6 0 -8 -1l38 -114q1 -3 1 -9q0 -10 -5.5 -18.5t-15.5 -11.5q-6 -2 -10 -2
q-10 0 -18 5.5t-12 15.5l-38 115q-27 -17 -42 -45t-15 -60q0 -20 5 -35q12 -40 45.5 -65t74.5 -25q52 0 88.5 36.5z" />
    <glyph glyph-name="uniF005" unicode="&#xf005;" 
d="M1091 54q9 -9 9 -23q0 -13 -9 -22t-22 -9h-938q-13 0 -22 9t-9 22t9 22.5t22 9.5h40l24 72q3 8 10 14t16 7l473 55v39h-469q-13 0 -22 9t-9 22t9 22.5t22 9.5h6l116 549l-39 15q-10 4 -15.5 11.5t-5.5 16.5q0 6 3 12q4 10 11.5 15.5t16.5 5.5q6 0 12 -3l364 -140v100
l-19 -6q-3 -1 -10 -1q-10 0 -18 5l-26 19l-10 -4q-8 -2 -11 -2q-9 0 -17 5.5t-12 14.5q-2 8 -2 11q0 10 5.5 18t14.5 12l25 9q4 2 12 2q11 0 17 -5l28 -20l23 8v8q0 13 9 22t22 9t22 -9t9 -22v-56l278 -587q3 -7 3 -14q0 -9 -4 -16q-10 -15 -27 -15h-250v-63l278 32h3
q16 0 26 -13q6 -7 6 -18q0 -6 -3 -12q-34 -88 -107 -144l110 -1q13 1 22 -8zM756 344h201l-201 423v-423zM694 729l-288 110l-111 -526h399v416zM814 63q53 11 97 41.5t72 76.5l-735 -85l-11 -33h577z" />
    <glyph glyph-name="uniF006" unicode="&#xf006;" horiz-adv-x="1194" 
d="M948 447q37 10 60.5 25t23.5 28t-23.5 28t-60.5 25t-73 10h-438q-46 0 -92 -10q-33 -8 -77.5 -24t-64.5 -26l-4 -2l3 -2h2q60 -29 144 -46q77 -16 132 -16h395q36 0 73 10zM524 375l-69 -313h67l168 313h-166zM210 428l-33 -116h37l73 91q-39 10 -77 25zM209 574
q54 20 75 26l-70 88h-37zM690 625l-168 313h-67l69 -313h166zM969.5 611.5q51.5 -13.5 88 -42t36.5 -69.5t-36.5 -69.5t-88 -42t-94.5 -13.5h-114l-51 -94h24q7 0 11.5 -4.5t4.5 -11.5v-63q0 -6 -4.5 -10.5t-11.5 -4.5h-74l-82 -155q-8 -15 -23.5 -24t-32.5 -9h-95
q-17 0 -28.5 11.5t-11.5 28.5q0 6 1 9l72 327q-43 1 -105 13l-92 -115q-19 -24 -49 -24h-66q-18 0 -29.5 12t-11.5 29q0 7 1 11l44 153q-24 13 -34 20q-18 13 -18 26t18 26q10 7 34 21l-44 152q-1 4 -1 11q0 17 11.5 29t29.5 12h66q30 0 49 -24l88 -110q40 8 86 8h23
l-72 327q-1 3 -1 9q0 17 11.5 28.5t28.5 11.5h95q17 0 32.5 -9t23.5 -24l82 -155h74q7 0 11.5 -4.5t4.5 -10.5v-63q0 -7 -4.5 -11.5t-11.5 -4.5h-24l51 -94h114q43 0 94.5 -13.5z" />
    <glyph glyph-name="u1F681" unicode="&#xf007;" 
d="M1054.5 286q-43.5 -52 -110.5 -64v-34q29 0 44.5 4.5t25.5 15.5q11 14 30 11q18 -3 24 -21q2 -6 2 -9q0 -13 -9 -22q-21 -21 -47.5 -32t-55.5 -11l-14 1h-375q-13 0 -22 9t-9 22q-1 13 8 22.5t23 9.5h31v31q-11 0 -17 5q-62 44 -105 108t-60 139l-259 29q-10 1 -17.5 9
t-9.5 18l-32 219v3q0 13 8 21q9 11 23 11h94q16 0 25 -12l84 -113h266v94q0 13 9 22t22 9h28q16 0 29 -9t19 -23l38 -95q93 -9 175 -45.5t131 -90.5t49 -112q-2 -68 -45.5 -120zM936.5 531q-73.5 43 -169.5 57q16 -47 47.5 -86t74.5 -64h142q-21 50 -94.5 93zM517 388.5
q31 -64.5 92 -107.5h304q42 1 75.5 27t44.5 67h-152q-8 0 -14 3q-67 34 -106 90.5t-63 125.5h-4h-375q-16 0 -25 12l-85 113h-42l23 -159l257 -29q11 -2 18.5 -8.5t8.5 -16.5v0q12 -53 43 -117.5zM881 219h-218v-31h218v31zM234 822q9 -9 22 -9h813q13 -1 22 8.5t9 22.5
t-9 22t-22 9h-813q-13 0 -22 -9t-9 -22t9 -22z" />
    <glyph glyph-name="uniF008" unicode="&#xf008;" 
d="M1075.5 455q23.5 -38 24.5 -83q-1 -59 -42 -103t-100 -49q-5 -1 -16 -1q-54 0 -97.5 35.5t-53.5 89.5h-3h-316q-11 -55 -54 -90t-99 -35t-99.5 35t-53.5 90h-35q-13 0 -22 9t-9 22q-2 49 11 95.5t41 86.5q41 54 104 78v6q0 32 23 55t55 23h203q19 0 36 -7.5t30 -21.5
q12 -13 18 -31t4 -37l-17 -165q-2 -21 12 -36q15 -15 34 -15h80q17 0 31.5 8.5t22.5 23.5l21 33q24 41 24 88q0 26 -7 48l-62 206h-70q-13 -1 -22 8t-9 23q-1 13 8.5 22t22.5 9h125q11 0 20 -7.5t11 -18.5t-4.5 -21t-16.5 -13l57 -190l1 -7q33 7 57 7q56 0 106 -24
q10 -4 14.5 -14t2.5 -21q-2 -10 -10.5 -17t-19.5 -7q-6 0 -14 3q-39 17 -78 17q-26 0 -50 -7q0 -16 -3 -33q26 9 51 9q37 0 69 -18q40 -20 63.5 -58zM164 406h376l23 222q0 12 -7 20q-8 8 -19 8h-203q-8 0 -12 -7q50 2 96.5 -19t79.5 -60q6 -9 6 -19q0 -16 -12 -25
q-8 -7 -19 -7q-15 0 -25 13q-24 28 -58 42.5t-71 12.5q-34 -4 -65 -21.5t-52 -46.5q-35 -50 -38 -113zM372.5 298.5q24.5 17.5 34.5 45.5h-176q10 -28 34 -45.5t54 -17.5q29 0 53.5 17.5zM1010.5 308.5q27.5 27.5 26.5 66.5q1 39 -26.5 66.5t-66.5 27.5t-66.5 -27.5
t-27.5 -66.5t27.5 -66.5t66.5 -27.5t66.5 27.5zM966 397q-9 9 -22 9t-22 -9t-9 -22q-1 -13 8.5 -22t22.5 -9t22 9t9 22t-9 22z" />
    <glyph glyph-name="uniF009" unicode="&#xf009;" horiz-adv-x="1204" 
d="M1012 512q37 -19 61.5 -53.5t29.5 -76.5q1 -7 1 -22q0 -59 -35.5 -105.5t-92.5 -61.5q-17 -5 -43 -5q-52 0 -96 29t-64 79q-12 32 -12 64q0 46 23.5 86t64.5 64l-9 26l-82 -83l-30 -147q-2 -11 -10.5 -18t-19.5 -7h-125q-8 0 -15.5 4.5t-11.5 11.5l-59 102l-42 -10
q3 -15 3 -31q0 -58 -35.5 -105t-92.5 -63q-24 -6 -47 -6q-53 0 -98 30.5t-64 82.5q-11 28 -11 61q0 50 26 92.5t72 64.5q34 17 75 17q46 0 86 -22t64 -62l32 8l-29 50l-239 90q-11 4 -15 12l-63 93q-5 8 -5 17q0 10 6 19q5 8 14 11t19 1l250 -62q14 -5 20 -17l25 -49l94 -24
l50 50q42 35 93 53.5t105 17.5l-11 32h-71q-13 0 -22 9t-9 22q-1 13 8 22.5t23 9.5l94 -1q10 0 18 -5.5t11 -15.5l24 -72h103q15 0 25 -13q6 -7 6 -18q0 -4 -2 -10l-31 -94q-3 -10 -11 -15.5t-18 -5.5h-20l11 -34q8 2 24 2q43 0 80 -19zM364 629l-158 40l12 -18l166 -63z
M384 374l-37 -9l-55 -32q-8 -5 -17 -5q-17 0 -26 15q-4 7 -4 16q0 18 15 27l58 35q3 2 9 4l30 7q-16 18 -37.5 27.5t-44.5 9.5q-30 0 -58 -17q-25 -16 -39 -40.5t-14 -52.5q0 -20 8 -41q12 -32 40.5 -51t62.5 -19q7 0 21 2q39 8 64.5 38.5t24.5 70.5q0 10 -1 15zM876 625h18
l10 31h-38zM800 656h-11q-45 2 -87 -12t-78 -43l-60 -60q-12 -12 -30 -9l-59 15v0l116 -203h81l19 94h-87q-13 -1 -22 8.5t-9 22.5t9 22t22 9h74l140 102zM1010 282q32 32 32 77q0 46 -32 78t-78 32l-3 -1l33 -99q1 -3 1 -9q0 -10 -5.5 -18.5t-15.5 -11.5q-6 -2 -10 -2
q-10 0 -18 6t-11 16l-34 99q-22 -16 -34 -39.5t-12 -49.5q0 -20 5 -34q11 -34 39.5 -55t64.5 -21v0q46 0 78 32z" />
    <glyph glyph-name="uniF010" unicode="&#xf010;" horiz-adv-x="824" 
d="M528 210q9 -9 9 -22v-125q0 -26 -18 -44.5t-44 -18.5h-125q-26 0 -44.5 18.5t-18.5 44.5v124q0 13 9 22.5t22 9.5t22.5 -9t9.5 -22l125 -1q-1 13 8 22.5t23 9.5q13 0 22 -9zM475 125h-125v-62h125v62zM699.5 810q24.5 -58 24.5 -120q0 -19 -1 -29q-7 -62 -35.5 -117
t-74.5 -96q-32 -29 -51 -65q-22 -48 -24 -102q-1 -12 -10 -20.5t-21 -8.5l-190 -2q-12 0 -21 8.5t-10 21.5q-1 51 -23 102q-21 39 -49 64q-52 45 -85 111q-29 64 -29 131q0 75 34.5 143t97.5 112q79 57 180 57q61 0 117.5 -22.5t100.5 -65.5q45 -44 69.5 -102zM482 344h-140
q5 -17 6 -31l128 -1q5 30 6 32zM639.5 584.5q22.5 49.5 22.5 103.5q0 51 -19.5 97.5t-56.5 81.5q-36 35 -83 53.5t-98 17.5q-65 -3 -119.5 -36t-87.5 -87t-36 -119q-2 -57 20.5 -108.5t65.5 -88.5q48 -41 72 -93h185q25 53 72 94v0q40 35 62.5 84.5z" />
    <glyph glyph-name="uniF011" unicode="&#xf011;" horiz-adv-x="1208" 
d="M1099 8.5q9 9.5 9 23.5q0 12 -9.5 21t-22.5 9h-944q-13 0 -22.5 -9t-9.5 -21q0 -14 9 -23.5t23 -9.5h944q14 0 23 9.5zM1107 769q0 33 -24.5 57.5t-58.5 24.5h-6l-108 -8q-66 -5 -124 -41l-51 -32l-253 50q-2 1 -6 1q-10 0 -18 -7l-92 -60q-15 -12 -15 -27q0 -17 18 -27
l139 -75l-108 -69l-154 15h-3q-6 0 -16 -4l-113 -72q-6 -4 -10 -11.5t-4 -15.5q0 -10 5.5 -17.5t13.5 -11.5l260 -104q6 -3 12 -3q4 0 7 1l172 31q7 2 10 5l20 11l1 -139q0 -14 9 -23t21 -9q8 0 18 5l111 73q10 7 13 18l69 230l155 98q56 37 93 84q17 26 17 52zM483 756
l174 -36l-88 -57l-124 67zM663 299l-1 209l133 84l-79 -258zM1045 770q0 -8 -5 -13q-33 -42 -77 -70l-92 -58l8 27q2 4 2 8q0 13 -10 22.5t-23 9.5q-8 0 -16 -5l-218 -139q-14 -11 -14 -27v-71l-47 -28l-159 -29l-194 78l51 32l153 -15h4q9 0 17 5l396 252q40 27 93 32
l110 7q13 0 19 -10z" />
    <glyph glyph-name="uniF012" unicode="&#xf012;" 
d="M1090.5 9q9.5 9 9.5 22t-9.5 22t-22.5 9h-937q-13 0 -22 -9t-9 -22t9 -22t22 -9h937q13 0 22.5 9zM1055 376q0 33 -25 58l-76 76q-46 46 -111 66l-58 17l-128 222q-7 12 -18 15l-107 29q-2 1 -8 1q-13 0 -22 -9t-9 -22q0 -5 1 -7l35 -153l-122 36l-88 125q-7 9 -17 12
l-127 37q-3 1 -9 1q-13 0 -22 -9t-9 -22q0 -4 2 -10l90 -262q3 -9 10 -14l136 -109q7 -5 11 -6l21 -6l-104 -92q-11 -9 -11 -23q0 -10 6.5 -18.5t16.5 -11.5l127 -36q3 -1 9 -1q5 0 13 2l217 98l174 -51q51 -16 107 -16h16q24 2 44 16t29 37q6 15 6 30zM610 773l88 -154
l-101 30l-31 136zM385 341l156 137l149 -44l-244 -110zM992 376q0 -8 -5.5 -14t-13.5 -6q-54 -2 -102 13l-104 31l25 11q9 4 14 11.5t5 17.5t-6 18.5t-16 11.5l-247 73q-3 1 -8 1q-11 0 -21 -8l-52 -46l-53 16l-124 100l-68 196l58 -17l88 -125q7 -9 17 -12l446 -132
q49 -15 85 -50l76 -76q6 -6 6 -14z" />
    <glyph glyph-name="u1F68C" unicode="&#xf013;" 
d="M747 853q-9 -9 -22 -9h-250q-13 0 -22 9t-9 22t9 22t22 9h250q13 0 22 -9t9 -22t-9 -22zM270 299.5q-14 -13.5 -14 -33.5q0 -19 14 -33t33 -14q20 0 33.5 14t13.5 33q0 20 -13.5 33.5t-33.5 13.5q-19 0 -33 -13.5zM864 299.5q-14 -13.5 -14 -33.5q0 -19 14 -33t33 -14
q20 0 33.5 14t13.5 33q0 20 -13.5 33.5t-33.5 13.5q-19 0 -33 -13.5zM1091 741q9 -9 9 -22v-219q0 -13 -9 -22t-22 -9h-31l-1 -313q0 -41 -31 -69v-56q0 -13 -9 -22t-22 -9h-125q-13 0 -22 9t-9 22v32h-438v-32q0 -13 -9 -22t-22 -9h-125q-13 0 -22 9t-9 22v56
q-31 28 -31 69v313h-32q-13 0 -22 9t-9 22v219q0 13 9 22t22 9h32v156q-1 39 26.5 66.5t66.5 27.5h688q39 0 66.5 -27.5t27.5 -66.5v-156h31q13 0 22 -9zM631 406h344v344h-344v-344zM225 750v-344h344v344h-344zM234 134q9 -9 22 -9h688q13 0 22 9t9 22v188h-750v-188
q0 -13 9 -22zM975 813v93q0 13 -9 22.5t-22 9.5h-688q-13 0 -22 -9.5t-9 -22.5v-93h750zM778 272q9 -9 10 -22q0 -13 -9.5 -22t-22.5 -9h-312q-13 0 -22 9t-9 22q-1 13 8.5 22t22.5 9h312q13 0 22 -9z" />
    <glyph glyph-name="uniF014" unicode="&#xf014;" 
d="M1091 53q9 -9 9 -22t-9 -22t-22 -9h-938q-13 0 -22 9t-9 22t9 22t22 9h170q-57 65 -92.5 144t-45.5 164l-1 6q0 13 11 22q48 42 114 82v94l-45 23q-8 4 -12.5 11.5t-4.5 16.5v219q0 13 9 22t22 9h226l25 101q3 11 11.5 17.5t18.5 6.5h125q11 0 19.5 -6.5t11.5 -17.5
l25 -101h226q13 0 22 -9t9 -22v-219q0 -9 -4.5 -16.5t-12.5 -11.5l-46 -23v-94q62 -36 115 -82q13 -11 10 -28q-10 -85 -45.5 -164t-92.5 -144h170q13 0 22 -9zM654 875l-16 62h-76l-16 -62h108zM606 593q126 -25 244 -80v81q0 18 17 28l45 22v168h-625v-168l46 -22
q17 -10 17 -28v-81q118 55 244 80q6 2 12 0zM392 62h415q128 101 165 301q-153 119 -341 160v-398q0 -13 -9 -22t-22 -9t-22 9t-9 22v398q-188 -41 -341 -160q37 -199 164 -301zM359 696.5q9 -9.5 22 -9.5h438q13 0 22 9.5t9 22.5t-9 22t-22 9h-438q-13 0 -22 -9t-9 -22
t9 -22.5zM795 359q0 10 -5.5 18t-13.5 11l-39 16q-8 2 -12 2q-13 0 -22 -9t-9 -22v-94q0 -13 9 -22t22 -9t22 9t9 22v48q11 -3 22 2.5t15 16.5q2 3 2 11zM506 375q0 13 -9 22t-22 9q-8 0 -12 -2l-39 -16q-9 -3 -14.5 -11t-5.5 -18q0 -13 9 -22t22 -9q6 0 9 1v-48
q0 -13 9 -22t22 -9t22 9t9 22v94v0z" />
    <glyph glyph-name="uniF015" unicode="&#xf015;" horiz-adv-x="1186" 
d="M425.5 243.5q-9.5 13.5 -24.5 20.5l-122 49v-45q-1 -21 12.5 -37.5t34.5 -21.5l109 -21v26q0 16 -9.5 29.5zM890.5 230.5q-13.5 -16.5 -34.5 -21.5l-109 -21v26q0 16 9.5 29.5t24.5 20.5l123 49v-45h-1q1 -21 -12.5 -37.5zM1086 570q0 9 -4 14q-7 10 -19 10h-117l-32 145
q-8 32 -33.5 53t-58.5 21h-75v-63h75q11 0 19.5 -6.5t11.5 -17.5l44 -200q-155 -20 -306 -20q-149 0 -306 20l44 200q2 10 11 17t20 7h75v63l-75 -1q-33 1 -58.5 -20t-33.5 -53l-32 -145h-113q-11 0 -19 -10q-6 -9 -3 -21l12 -34q5 -14 15 -23.5t24 -12.5l33 -9v-285
q0 -19 8 -36t23 -29v-103q0 -13 9 -22t22 -9h63q13 0 22 9t9 22v69q130 -22 251 -22q120 0 249 22v-69q0 -13 9 -22t22 -9h63q13 0 22 9t9 22v103q15 12 23 29t8 36v284l38 10q13 3 23.5 12.5t15.5 23.5l11 34q1 2 1 7zM930 185q-5 -6 -12 -7q-158 -37 -327 -37
q-167 0 -327 37q-7 1 -12 7t-5 14v270q168 -25 345 -25q175 0 343 25v-270q0 -8 -5 -14zM506.5 241q9.5 9 22.5 9h124q13 0 22.5 -9t9.5 -22t-9 -22t-22 -9h-125q-13 -1 -22.5 8t-9.5 23q0 13 9.5 22zM609 568.5q-8 -5.5 -18 -5.5q-7 0 -10 1q-10 4 -15.5 12t-5.5 19
q0 6 1 9l49 146h-82q-15 0 -25 13q-6 8 -6 18q0 4 2 10l62 188q4 10 11.5 15.5t17.5 5.5q3 0 11 -2q10 -3 15.5 -11.5t5.5 -18.5q0 -6 -1 -9l-49 -146h82q15 0 25 -13q6 -9 6 -18q0 -3 -2 -11l-62 -187v0q-4 -10 -12 -15.5z" />
    <glyph glyph-name="u1F680" unicode="&#xf016;" 
d="M1100 965l-22 -200q-1 -11 -9 -19l-409 -409q-103 -175 -238 -327q-8 -10 -22 -10h-1q-13 0 -22 9l-268 268q-9 9 -9 23q0 13 10 23q154 135 327 237l409 408q7 9 18 9l201 23h4q13 0 22 -9q11 -11 9 -26zM466 504q-151 -88 -289 -206l65 -66q124 128 224 272zM604 366
q-144 -100 -272 -224l131 -130l-65 65q118 138 206 289zM882 917l-305 -306h1q8 -10 8 -21q0 -9 -4 -16q-123 -210 -296 -386l2 -2q175 172 386 297q10 4 16 4q12 0 21 -9l0.5 -0.5l0.5 -0.5l89 90l-89 89q-9 11 -9 22q0 13 9 22t23 9q11 0 21 -8l90 -90l45 45l-90 90
q-9 9 -9 22t10 22q9 9 22 9q12 0 21 -9l90 -90l82 82l16 151z" />
    <glyph glyph-name="uniF017" unicode="&#xf017;" horiz-adv-x="1190" 
d="M1081 918.5q9 -21.5 9 -44.5q0 -20 -8 -42l-30 -75q-15 -43 -48 -74l-58 -58q-44 -84 -65.5 -175.5t-20.5 -185.5q0 -40 -14.5 -76t-42.5 -64l-106 -106q-18 -18 -43 -18t-45 18l-135 135l-22 -24q-10 -8 -23 -8q-12 0 -22 8l-44 45q-9 9 -9 22q0 14 9 23l23 22l-45 44
l-23 -21q-9 -10 -22 -10t-23 10l-45 43q-8 11 -8 23t8 22l24 23l-135 135q-17 19 -17 43q0 26 17 45l106 105q28 27 64 41.5t74 14.5h12q92 0 181 22.5t170 65.5l58 56q33 35 76 50l75 30q21 8 40 8q23 0 44.5 -9.5t37.5 -25.5q17 -16 26 -37.5zM267 660l-39 -39l135 -137
l248 248q-130 -37 -248 -34q-55 0 -96 -38zM296 418l24 23l-136 136l-22 -22zM540 219l-23 -23l135 -135l24 24zM833 510l-248 -248l135 -134l38 40q19 18 29.5 43.5t9.5 52.5q0 131 36 246zM1028 874q0 22 -16 38q-15 17 -39 17q-11 0 -19 -4l-74 -30q-28 -10 -55 -35
l-486 -485l45 -47l158 158q8 8 21 8q12 0 21 -9.5t9 -21.5q0 -11 -8 -22l-156 -156l45 -44l485 485q23 20 37 55l28 74q4 8 4 19zM866 827q-5 3 -13 3q-12 0 -21 -9.5t-9 -21.5q0 -9 5 -16.5t13 -11.5q21 -7 29 -27q4 -9 11.5 -14.5t16.5 -5.5q12 0 21.5 9t9.5 23l-1 10
q-18 43 -62 61z" />
    <glyph glyph-name="u1F691" unicode="&#xf018;" 
d="M1100 399v-149q0 -26 -18 -44t-44 -18h-33q-6 -40 -36.5 -67t-71.5 -27t-71.5 27t-36.5 67h-316q-5 -40 -35.5 -67t-71.5 -27t-72 27t-36 67h-95q-26 -1 -44.5 17.5t-18.5 44.5v469q0 26 18.5 44t44.5 18h477l24 73q3 9 11.5 15t18.5 6h62q10 0 18.5 -6t11.5 -15l24 -73
h28q28 0 53 -14t39 -38l146 -242q24 -40 24 -88zM860.5 713q-10.5 6 -22.5 6h-19v-188h157l-99 166q-6 10 -16.5 16zM744 781l-10 32h-18l-10 -32h38zM163 406h874q-2 27 -15 49l-8 14h-226q-13 0 -22.5 9t-9.5 22v219h-93h-500v-313zM399.5 170q13.5 14 12.5 33
q1 19 -12.5 33t-33.5 14q-19 0 -33 -13.5t-14 -33.5q0 -19 14 -33t33 -14q20 0 33.5 14zM930.5 170q13.5 14 13.5 33q0 20 -13.5 33.5t-33.5 13.5q-19 0 -33 -13.5t-14 -33.5q0 -19 14 -33t33 -14q20 0 33.5 14zM1038 344h-875v-94h104q14 29 40.5 46t58.5 17q31 0 57.5 -17
t40.5 -46h334q14 29 41 46t58 17t57.5 -17t40.5 -46h43v94zM359 540.5q9 -9.5 22 -9.5h63v-62q0 -13 9 -22t22 -9q13 -1 22 8.5t9 22.5v62h63q13 0 22 9t9 22t-9 22.5t-22 9.5h-63v62q0 13 -9 22t-22 10q-13 0 -22 -9.5t-9 -22.5v-62h-63q-13 0 -22 -9t-9 -22t9 -22.5z" />
    <glyph glyph-name="uniF019" unicode="&#xf019;" horiz-adv-x="1187" 
d="M506.5 272q9.5 9 22.5 9h124q13 0 22.5 -9t9.5 -22t-9 -22t-22 -9h-125q-13 0 -22.5 9t-9.5 22t9.5 22zM1082 615q5 -7 5 -13q0 -2 -2 -8l-11 -34q-5 -14 -15.5 -23.5t-23.5 -12.5l-38 -10v-284q0 -19 -8 -36t-23 -29v-102q0 -13 -9 -22.5t-22 -9.5h-63q-13 0 -22 9.5
t-9 22.5v68q-120 -20 -249 -22q-130 2 -251 22v-68q0 -13 -9 -22.5t-22 -9.5h-63q-13 0 -22 9.5t-9 22.5v102q-15 12 -23 29t-8 36v286l-33 8q-14 3 -24 12.5t-15 23.5l-12 34q-1 3 -1 8q0 8 4 13q8 10 19 10h113l32 145q5 20 16.5 36t29.5 26l14 59q9 35 37 56.5t63 21.5
h326q35 0 63 -21.5t37 -56.5l14 -59q18 -10 29.5 -26t16.5 -36l32 -145h117q12 0 19 -10zM654 844h147l-8 32q-4 13 -14.5 21.5t-24.5 8.5h-100v-62zM403.5 897.5q-10.5 -8.5 -14.5 -21.5l-8 -32h148v62h-101q-14 0 -24.5 -8.5zM591 537q151 0 306 20l-44 200q-2 10 -11 17
t-20 7h-462q-11 0 -19.5 -6.5t-11.5 -17.5l-44 -200q157 -20 306 -20zM592 475q-177 0 -345 25v-270q0 -8 5 -14t12 -7q166 -37 327 -37q162 0 327 37q7 1 12 7t5 14v270q-168 -25 -343 -25zM890.5 261.5q-13.5 -16.5 -34.5 -21.5l-109 -21v26q0 16 9.5 30t24.5 20l123 49
l-1 -45q1 -21 -12.5 -37.5zM425.5 275q9.5 -14 9.5 -30v-26l-109 21q-21 5 -34.5 21.5t-12.5 37.5v45l122 -49q15 -6 24.5 -20z" />
    <glyph glyph-name="uniF020" unicode="&#xf020;" 
d="M1091 303.5q9 -9.5 9 -22.5t-9 -22t-22 -9h-37q6 -15 6 -32q0 -23 -11 -44t-31 -34q-23 -16 -52 -16q-35 0 -63 25q-25 -24 -62 -24q-20 0 -39 8q-25 11 -40 34.5t-15 51.5q0 16 6 31h-262q6 -15 6 -32q0 -23 -11 -44t-30 -34q-23 -16 -52 -16q-36 0 -63 25
q-27 -24 -63 -24q-19 0 -38 8q-26 11 -41 34.5t-14 51.5q0 14 5 31h-37q-13 0 -22 9t-9 22t9 22.5t22 9.5h48q-41 108 -41 220q0 137 59 261q4 8 11.5 13t16.5 6h281q0 13 9.5 22t22.5 9h125q13 0 22 -9t9 -22h281q9 -1 16.5 -6t11.5 -13q59 -124 59 -261q0 -112 -41 -220
h48q13 0 22 -9.5zM200 532q0 -115 46 -219h73v375q0 13 9 22t22 9t22 -9t9 -22v-375h438v375q0 13 9 22t22 9t22 -9t9 -22v-375h73q46 104 46 219q0 113 -45 218h-710q-45 -105 -45 -218zM279 197q9 9 9 22t-9.5 22t-22.5 9t-22 -9t-9 -22t9 -22t22 -9q14 0 23 9zM403.5 241
q-9.5 9 -22.5 9t-22 -9t-9 -22t9 -22t22 -9q14 0 23 9t9 22t-9.5 22zM841 197q9 9 9 22t-9 22t-22 9t-22 -9t-9 -22t9 -22t22 -9t22 9zM966 197q9 9 9 22t-9 22t-22 9t-22 -9t-9 -22t9 -22t22 -9t22 9z" />
    <glyph glyph-name="u1F69C" unicode="&#xf021;" 
d="M1100 217q0 -58 -39 -103q-23 -26 -53.5 -39.5t-64.5 -13.5q-38 0 -73 18q-39 20 -61.5 58t-22.5 82q0 21 4 37q14 53 56.5 86t97.5 33q37 0 69 -17l21 236h-487q62 -43 100 -109t45 -141h36q33 58 91 91.5t125 33.5q13 0 22 -9t9 -22t-9 -22.5t-22 -9.5q-51 0 -94 -25
t-68.5 -68t-25.5 -94q0 -13 -9 -22t-22 -9q-13 -1 -22 8.5t-9 22.5q0 30 8 62h-104q-11 -83 -71 -145v0l-1 -1q-36 -36 -81.5 -54.5t-94.5 -18.5t-94.5 18.5t-81.5 54.5l-1 1v0q-36 36 -54.5 82t-18.5 95q0 48 18.5 94t54.5 82v0l0.5 0.5l0.5 0.5q36 36 81.5 54.5t94.5 18.5
t95 -18.5t81 -54.5l0.5 -0.5l0.5 -0.5v0q60 -62 71 -145h31q-8 77 -55.5 139.5t-120.5 90.5q-52 20 -103 20q-50 0 -97 -17.5t-86 -50.5q-9 -9 -22 -9q-4 0 -10 2q-8 2 -13.5 9t-7.5 15v5q0 16 12 25q58 51 130 70v263q0 14 9.5 23t22.5 9l312 -1q11 0 19.5 -6.5t10.5 -17.5
l57 -257h163v188q0 13 9 22t22 9t22.5 -9t9.5 -22v-188h156q14 0 23 -10q10 -10 8 -24l-29 -314q29 -41 29 -91zM535 282q-12 1 -20.5 9.5t-8.5 20.5q0 13 8.5 21.5t20.5 9.5q-8 44 -33 78q-8 -7 -20 -7t-21 9q-10 10 -10 22q0 10 8 20q-35 24 -78 32q-1 -12 -10 -20t-21 -8
t-20.5 8t-10.5 20q-43 -8 -78 -32q8 -10 8 -21q0 -12 -9 -21t-22 -9q-12 0 -20 7q-25 -34 -33 -78q13 -1 21 -9.5t8 -21.5q0 -12 -8 -20.5t-21 -9.5q8 -44 33 -78q8 7 19 7q14 0 23 -9t9 -22q0 -10 -8 -20q38 -26 78 -32q2 12 10.5 20t20.5 8t21 -8t10 -20q40 6 78 32
q-8 10 -8 20q0 12 10 22q9 9 22 9q11 0 19 -7q25 34 33 78zM575 875h-256v-219h305zM1010.5 152.5q27.5 27.5 26.5 66.5q1 39 -26.5 66t-66.5 27q-39 1 -66.5 -26.5t-27.5 -66.5t27.5 -66.5t66.5 -27.5t66.5 27.5zM966 241q-9 9 -22 9t-22 -9t-9 -22q-1 -13 8 -22t23 -9
q13 -1 22 8.5t9 22.5t-9 22zM412.5 420.5q28.5 -16.5 45.5 -45t17 -62.5q0 -52 -36.5 -88.5t-88.5 -36.5q-34 0 -62.5 16.5t-45.5 45t-17 62.5t17 63t45.5 45.5t62.5 16.5t62.5 -16.5zM394.5 268.5q18.5 18.5 17.5 43.5q1 26 -17.5 44.5t-44.5 18.5t-44 -18t-18 -44
q-1 -26 17.5 -44.5t44.5 -18.5t44.5 18.5z" />
    <glyph glyph-name="uniF022" unicode="&#xf022;" horiz-adv-x="1198" 
d="M1089 245q9 -9 9 -22t-9 -22t-22 -9h-67q-11 -41 -44.5 -67.5t-76.5 -26.5q-42 0 -76 26.5t-44 67.5h-289q-11 -41 -44.5 -67.5t-76.5 -26.5q-42 0 -76 26.5t-44 67.5h-98q-13 0 -22 9t-9 22v218q0 13 9 22t22 9h299l-205 205v-111q0 -13 -9 -22.5t-22 -9.5t-22.5 9.5
t-9.5 22.5v174l-22 22q-8 10 -8 21q0 13 9 22.5t22 9.5t21 -9l290 -290v143q0 13 9 22t22 9t22 -9t9 -22v-187h63v125q0 26 18.5 44t43.5 18h152q26 0 47 -17t26 -42l19 -97h68q38 0 66 -27.5t28 -65.5v-156q13 0 22 -9zM393.5 178.5q18.5 18.5 18.5 44.5t-18.5 44t-44.5 18
q-25 0 -43.5 -18t-18.5 -44t18 -44.5t44 -18.5t44.5 18.5zM162 410v-156h67q10 41 44 67t76 26q43 0 77 -26t44 -67h129v156h-437zM841 503l-16 84q-3 10 -12 10h-152v-94h180zM923.5 178.5q18.5 18.5 18.5 44.5t-18.5 44t-44.5 18q-25 0 -43.5 -18t-18.5 -44t18 -44.5
t44 -18.5t44.5 18.5zM995 432q-9 9 -22 9h-312v-187h98q10 41 44 67t76 26q43 0 77 -26t44 -67h4v156q0 13 -9 22z" />
    <glyph glyph-name="uniF023" unicode="&#xf023;" horiz-adv-x="1202" 
d="M100 737q0 32 23.5 55.5t55.5 23.5q5 0 8 -1q121 -12 229 -70q178 74 373 74q87 0 158.5 -37.5t113 -102t41.5 -142.5q-1 -80 -45.5 -148t-117.5 -101l-17 -68q-6 -26 -27.5 -42.5t-48.5 -16.5h-138q-29 0 -54 13.5t-40 37.5l-44 67q-86 22 -154 50q-108 -58 -229 -70
q-3 -1 -8 -1q-32 0 -55.5 23.5t-23.5 55.5v400zM163 737v-137q84 62 179 111q-76 33 -162 42h-2q-6 0 -10 -4q-5 -5 -5 -12zM342 363q-95 49 -179 111v-137q0 -7 5 -12q6 -6 12 -4q86 9 162 42zM789 255q-68 0 -134 9l11 -18q7 -10 18 -16t24 -6h139q5 0 9 3.5t6 8.5l7 28
q-39 -9 -80 -9zM324 630q-61 -36 -98 -62h187q13 0 22.5 -9t9.5 -22t-9.5 -22t-22.5 -9h-187q46 -33 94 -59q131 -77 281 -110q91 -19 188 -19q69 0 126.5 29t91 79t33.5 111t-33.5 111t-91 79t-126.5 29q-97 0 -188 -19q-148 -34 -277 -107z" />
    <glyph glyph-name="uniF024" unicode="&#xf024;" 
d="M1060.5 279q34.5 -32 38.5 -79q1 -5 1 -14q0 -42 -27 -75.5t-69 -44.5q-14 -3 -28 -3q-38 0 -70.5 22t-46.5 59q-8 22 -8 44q0 34 18 64t49 46l-12 51l-157 -182q-9 -11 -24 -11h-379q-11 -42 -45.5 -68t-77.5 -26q-9 0 -14 1q-47 6 -78 41.5t-31 82.5t31 83t78 42
q5 1 14 1q43 0 77.5 -26t45.5 -68h32q-11 54 -54.5 89.5t-98.5 35.5q-37 0 -72 -18q-6 -3 -13 -3q-20 0 -29 17q-4 8 -4 14q0 8 5 16t13 12q48 24 100 24q54 0 100 -24q47 -25 78 -68t38 -95h270l178 206l-95 419h-69q-13 0 -22 9t-9 22t9 22t22 9h94q11 0 19.5 -7t10.5 -17
l130 -570q47 -1 81.5 -33zM203 165q-9 9 -9 22t9 22.5t22 9.5h54q-8 14 -22.5 22.5t-31.5 8.5q-6 0 -16 -2q-21 -5 -34 -22t-13 -39q0 -21 13 -38t34 -22q10 -2 16 -2q17 0 31.5 8.5t22.5 22.5h-54q-13 0 -22 9zM1015.5 140q17.5 15 21.5 38q1 3 1 10q0 20 -12.5 36.5
t-31.5 22.5l12 -53v-6q0 -10 -4 -17q-8 -11 -20 -14q-2 -1 -7 -1q-11 0 -19.5 7t-10.5 18l-12 52q-21 -19 -21 -46q0 -10 5 -22q7 -18 23 -29t35 -11q23 0 40.5 15z" />
    <glyph glyph-name="uniF025" unicode="&#xf025;" 
d="M1067.5 623q32.5 -32 32.5 -77v-234q0 -39 -28 -66.5t-66 -27.5q-39 0 -66.5 27.5t-27.5 66.5h-62q-74 -2 -139 34q-50 30 -111 28q-61 2 -111 -28q-66 -36 -139 -34h-63q0 -39 -27.5 -66.5t-65.5 -27.5q-39 0 -66.5 27.5t-27.5 66.5v234q0 45 32 77t77 32t77.5 -32
t32.5 -77v-16h562v16q0 45 32 77t77 32t77.5 -32zM181 405h-19v-93q0 -13 9.5 -22.5t22.5 -9.5t22 9.5t9 22.5v49zM569 435v33h-282q-13 0 -22 9t-9 22v47q0 20 -13.5 33.5t-33.5 13.5q-19 0 -33 -14t-14 -33v-78h32q13 0 22 -9l62 -63q9 -9 9 -22h63q58 -1 111 28
q49 28 108 33zM921 396l63 63q9 9 22 9h31v78q0 20 -13.5 33.5t-33.5 13.5q-19 0 -33 -14t-14 -33v-47q0 -13 -9 -22t-22 -9h-281v-33q59 -5 108 -33q51 -30 111 -28h62q0 13 9 22zM1028 289.5q9 9.5 9 22.5v93h-18l-44 -44v-49q0 -13 9 -22.5t22 -9.5t22 9.5z" />
    <glyph glyph-name="uniF026" unicode="&#xf026;" horiz-adv-x="1138" 
d="M260.5 27.5q27.5 27.5 27.5 66.5v312q0 39 -27.5 66.5t-66.5 27.5t-66.5 -27.5t-27.5 -66.5v-312q0 -39 27.5 -66.5t66.5 -27.5t66.5 27.5zM216 428.5q9 -9.5 9 -22.5v-312q0 -13 -9 -22t-22 -9q-13 -1 -22 8.5t-9 22.5v312q0 13 9 22.5t22 9.5t22 -9.5zM1010.5 27.5
q27.5 27.5 27.5 66.5v312q0 39 -27.5 66.5t-66.5 27.5t-66.5 -27.5t-27.5 -66.5v-312q0 -39 27.5 -66.5t66.5 -27.5t66.5 27.5zM966 428.5q9 -9.5 9 -22.5v-312q0 -13 -9 -22t-22 -9q-13 -1 -22 8.5t-9 22.5v312q0 13 9 22.5t22 9.5t22 -9.5zM966 585q9 -9 9 -22t-9 -22.5
t-22 -9.5q-52 0 -88.5 -36.5t-36.5 -88.5v-250q0 -13 -9 -22t-22 -9h-438q-13 0 -22 9t-9 22v250q0 52 -36.5 88.5t-88.5 36.5q-13 0 -22 9t-9 22t9 22.5t22 9.5q51 0 94 -25t68.5 -68.5t25.5 -94.5v-93h156v625h-156q-13 -1 -22.5 8t-9.5 23q0 13 9.5 22t22.5 9h374
q13 0 22.5 -9t9.5 -22t-9 -22t-22 -9h-157v-625h157l-1 93q0 51 25.5 94.5t68.5 68.5t94 25q13 0 22 -9zM600 250q0 -13 -9 -22t-22 -9t-22 9t-9 22h-156v-62h375v62h-157z" />
    <glyph glyph-name="u1F687" unicode="&#xf027;" horiz-adv-x="1137" 
d="M1037 532q0 126 -63.5 233.5t-171 171t-232.5 63.5q-127 0 -235 -63.5t-171.5 -171t-63.5 -233.5q0 -95 37 -182t104 -153q8 -9 21 -9t22 9t9 22q0 14 -9 23q-58 57 -90 132.5t-31 157.5v0q0 109 55 202.5t148.5 148.5t203.5 55q109 0 202 -55t147.5 -148.5t54.5 -202.5
q0 -83 -31.5 -157.5t-90.5 -132.5q-8 -8 -8 -23q0 -13 9 -22t22 -9q15 0 21 9q68 65 104.5 152.5t36.5 182.5v0zM791 754q-28 28 -66 28h-313q-38 0 -65.5 -28t-27.5 -66v-376q0 -38 27.5 -65.5t65.5 -27.5h9l-99 -171q-3 -7 -3 -17q0 -13 9 -21.5t22 -8.5q18 0 27 16
l116 202h14h138l34 -63h-172q-14 0 -23.5 -8.5t-9.5 -21.5t9.5 -22.5t23.5 -9.5h208l45 -77q8 -17 28 -17q12 0 21.5 9t9.5 22q0 7 -4 17l-99 171h9q38 0 66 28t28 65v376q0 38 -28 66zM380 628h376v-157h-376v157zM390 710q10 9 22 9h313q12 0 21.5 -9t9.5 -22h-376
q0 13 10 22zM746.5 290.5q-9.5 -9.5 -21.5 -9.5h-313q-12 0 -22 9.5t-10 21.5v95h376v-95q0 -12 -9.5 -21.5zM465 365.5q9 -9.5 9 -21.5q0 -13 -9 -22.5t-22 -9.5t-22 9.5t-9 22.5q0 12 9 21.5t22 9.5t22 -9.5zM715.5 365.5q9.5 -9.5 9.5 -21.5q0 -13 -9.5 -22.5t-22.5 -9.5
t-21.5 9.5t-8.5 22.5q0 12 9 21.5t21 9.5q13 0 22.5 -9.5z" />
    <glyph glyph-name="u1F489" unicode="&#xf028;" 
d="M1100 713q0 -13 -10 -22q-9 -9 -21 -9q-13 0 -22 9l-42 42l-126 -127l63 -63q9 -9 9 -21t-10 -22t-22 -10t-21 9l-21 21l-363 -363q-10 -10 -22 -10l-8 1l-151 40l-180 -179q-7 -9 -21 -9q-6 0 -9 1q-17 5 -22 22q-1 3 -1 9q0 14 9 21l179 179l-39 152q-1 3 -1 8
q0 13 9 22l65 65v0l107 107v0l191 191l-21 21q-9 9 -9 21t10 22t22 10t21 -9l64 -63l126 126l-42 42q-9 9 -9 22q0 12 9 21q9 10 22 10t22 -9l256 -256v0q9 -9 9 -22zM664 733l-62 -63l41 -41q9 -9 9 -22t-9 -22t-23 -9q-11 0 -21 8l-42 42l-62 -62l42 -42q9 -9 9 -22
t-10 -22q-9 -9 -21 -9q-13 0 -22 9l-42 42l-62 -63l41 -41q10 -9 10 -22t-10 -23q-9 -9 -22 -9t-22 9l-42 42l-31 -31l36 -133l133 -36l351 351zM877 861l-126 -127l83 -83l127 126z" />
    <glyph glyph-name="uniF029" unicode="&#xf029;" horiz-adv-x="1165" 
d="M1042.5 433q22.5 -56 22.5 -116t-23 -117t-67 -102q-45 -46 -102.5 -70t-119.5 -24q-58 0 -113.5 21.5t-99.5 62.5q-36 -42 -86 -65t-105 -23q-44 0 -86 15q-74 28 -118.5 92t-44.5 143v500q0 68 33.5 125.5t91 91t125.5 33.5t125.5 -33.5t91 -91t33.5 -125.5v-167
q72 41 156 41q62 0 119.5 -23.5t101.5 -67.5q43 -44 65.5 -100zM432.5 81.5q39.5 19.5 66.5 54.5q-55 81 -55 177q0 84 42 156h-104q-13 0 -22.5 9t-9.5 22t9.5 22t22.5 9h152l2 2q0 1 2 3v3v211q0 51 -25 94t-68.5 68t-94.5 25t-94 -25t-68 -68t-25 -94v-500q0 -51 25 -94
t68 -68t94 -25q43 -1 82.5 18.5zM987 216.5q19 45.5 20 95.5q0 59 -26.5 111t-72 87.5t-103.5 47.5q-27 5 -48 5q-75 0 -138.5 -42t-92.5 -113q-19 -45 -19 -96q0 -62 29 -117t82 -90q62 -43 139 -43q49 0 95 19t81 55q35 35 54 80.5zM867 454q-13 0 -22 -9l-221 -221
q-9 -9 -9 -22t9 -22t22 -9t22 9l221 221q9 9 9 22t-9 22v0q-9 9 -22 9zM279 424.5q-9 9.5 -22 9.5t-22.5 -9t-9.5 -23v-27q0 -13 9 -22t22 -9t22.5 9t9.5 22v27q0 13 -9 22.5zM372 821q9 9 9 23q1 13 -8 22t-23 9q-52 0 -88.5 -36.5t-36.5 -88.5v-215q0 -13 9 -22t22 -9
t22.5 9t9.5 22v215q0 26 18 44.5t44 18.5q13 -1 22 8z" />
    <glyph glyph-name="u1F52C" unicode="&#xf030;" horiz-adv-x="888" 
d="M788 31q0 -13 -9 -22t-22 -9h-532q-13 0 -22 9t-9 22q0 4 2 10l30 94q4 9 12 15t18 6h74q-33 27 -57 63h-142q-13 0 -22 9t-9 22t9 22.5t22 9.5h344q13 0 22 -9.5t9 -22.5t-9 -22t-22 -9h-121q31 -30 70.5 -46.5t81.5 -16.5q59 0 109.5 30t80 80t29.5 109q0 48 -20 91.5
t-57 74.5q-21 -10 -47 -10q-43 0 -76 27l-58 -152q-4 -9 -11.5 -15t-17.5 -6q-4 0 -12 2l-175 67q-9 4 -14.5 12t-5.5 17q0 3 2 11l155 409q4 9 11.5 14.5t16.5 5.5q3 0 11 -2l23 59q3 9 11 14.5t18 5.5q8 0 11 -2l117 -44q9 -4 14.5 -12t5.5 -17q0 -3 -2 -11l-22 -58
q9 -4 14.5 -12t5.5 -18q0 -7 -2 -11l-13 -34q49 -3 83 -39t34 -85q0 -43 -26 -77q43 -40 66 -93t23 -112q0 -63 -27.5 -120.5t-77.5 -98.5h42q10 0 18.5 -6t11.5 -15l32 -94q1 -3 1 -10zM545 878l11 28l-59 23l-11 -29zM475 657q0 32 16 60.5t44 45.5l17 45l-117 44
l-132 -351l116 -44l62 163q-6 18 -6 37zM566 604.5q16 -10.5 34 -10.5v0q26 0 44.5 18.5t18.5 44.5q0 25 -18.5 43.5t-44.5 18.5q-25 0 -43.5 -18t-18.5 -44q0 -12 5 -25q7 -17 23 -27.5zM703 94h-424l-11 -31h445z" />
    <glyph glyph-name="uniF031" unicode="&#xf031;" horiz-adv-x="825" 
d="M725 531v-437q0 -39 -28 -66.5t-66 -27.5h-437q-39 0 -66.5 27.5t-27.5 66.5v437q0 13 9 22l147 147v50h-31q-13 0 -22 9t-9 22v125q0 38 27.5 66t65.5 28h250q39 0 66.5 -28t27.5 -66v-125q0 -13 -9 -22t-22 -9h-31v-50l147 -147q9 -11 9 -22zM300 656l-93 -94h411
l-94 94h-224zM287 812v63q0 13 9.5 22t22.5 9t22 -9t9 -22v-63h31v63q0 13 9 22t22 9t22.5 -9t9.5 -22v-63h31v63q0 13 9 22t22 9t22 -9t9 -22v-63h32v94q0 13 -9.5 22t-22.5 9h-250q-13 0 -22 -9t-9 -22v-94h31zM319 718h187v32h-187v-32zM162 500v-406q0 -13 9.5 -22.5
t22.5 -9.5h437q13 0 22 9.5t9 22.5v406h-500zM265 259q9 -9 22 -9h94v-94q0 -13 9 -22t22 -9t22.5 9t9.5 22v94h93q13 0 22.5 9t9.5 22t-9.5 22t-22.5 9h-93v94q0 13 -9.5 22t-22.5 9t-22 -9t-9 -22v-94h-94q-13 0 -22 -9t-9 -22t9 -22z" />
    <glyph glyph-name="uniF032" unicode="&#xf032;" horiz-adv-x="1012" 
d="M465.5 991q9.5 -9 9.5 -22t-9 -22t-22 -9l-1 -782q0 -42 -20.5 -78t-56.5 -57t-79 -21q-42 0 -78 21t-57 57t-21 78v782q-13 -1 -22 8.5t-9 22.5t9 22t22 9h312q13 0 22.5 -9zM353.5 89.5q27.5 27.5 27.5 66.5v407h-187v-125l62 -1q13 1 22 -8t9 -23q0 -13 -9 -22t-22 -9
h-62v-125h62q13 0 22 -9t9 -22t-9 -22t-22 -9h-62v-32q-1 -39 26.5 -66t66.5 -27q39 -1 66.5 26.5zM194 938v-125l62 -1q13 1 22 -8t9 -23q0 -13 -9 -22t-22 -9h-62v-125h187v313h-187zM903 991q9 -9 9 -22t-9 -22t-22 -9v-782q0 -42 -21 -78t-57 -57t-78 -21
q-43 0 -78.5 21t-56.5 57t-21 78v782q-13 -1 -22.5 8t-9.5 23q0 13 9.5 22t22.5 9h312q13 0 22 -9zM791.5 89.5q27.5 27.5 27.5 66.5v219h-188v-125h62q13 0 22.5 -9t9.5 -22t-9 -22t-22 -9h-63v-32q0 -39 27.5 -66t66.5 -27q39 -1 66.5 26.5zM631 938v-125l62 -1
q13 1 22.5 -8t9.5 -23q0 -13 -9 -22t-22 -9h-63v-125h62q13 0 22.5 -9t9.5 -22t-9 -22t-22 -9h-63v-125h188v500h-188z" />
    <glyph glyph-name="uniF033" unicode="&#xf033;" horiz-adv-x="1042" 
d="M942 753q0 -19 -3 -39q-12 -56 -44.5 -101.5t-81.5 -74.5q-46 -30 -104 -49q-46 -49 -106.5 -78.5t-127.5 -34.5v-135q60 -5 113 -28q61 -27 101 -80t50 -119q-69 98 -174 141q-42 16 -90 22v-114l125 -1q13 1 22 -8t9 -23q0 -13 -9 -22t-22 -9h-313q-13 0 -22 9t-9 22
t9 22.5t22 9.5h125v122l-16 1q-70 3 -134 35q-31 16 -51 44.5t-25 63.5q-2 14 -2 22q0 52 37 91l4 4q-51 37 -83.5 90.5t-41.5 115.5v3q0 12 7 22q9 11 24 11l625 -1h3q13 0 21 -10q9 -10 7 -25q-5 -36 -18 -67q9 5 11 6q37 22 62.5 57t35.5 77q2 9 2 27q0 56 -35 99
q-6 9 -22 25q-34 30 -79 30q-50 0 -112 -37q-14 -8 -53 -41q-38 -33 -64.5 -50t-54.5 -17q-14 -1 -26.5 6.5t-19.5 20.5q-4 9 -4 20q0 34 35.5 58t89.5 49q111 52 197 52q105 0 164 -78q46 -61 46 -136zM412 376q-69 6 -130 36q-9 -6 -16 -13q-20 -22 -20 -51l1 -10
q4 -20 16 -36.5t30 -26.5q52 -25 109 -26l10 -1v128zM611.5 486q75.5 52 105.5 139h-547q30 -87 106 -139t168 -49q92 -3 167.5 49z" />
    <glyph glyph-name="u1F6BD" unicode="&#xf034;" horiz-adv-x="1169" 
d="M1045 763.5q24 -52.5 24 -110.5v-306q0 -73 -36 -134.5t-97.5 -97.5t-134.5 -36q-22 0 -33 2q-266 35 -504 154q-75 38 -119.5 109.5t-44.5 155.5t44.5 155.5t119.5 109.5q238 119 504 154q22 2 34 2q49 0 94.5 -17.5t81.5 -49.5q43 -38 67 -90.5zM500 380l146 -35
q40 -14 83 -14q19 0 37 3q45 11 66.5 59.5t21.5 106.5t-21.5 106.5t-66.5 59.5q-18 3 -37 3q-43 0 -83 -14l-146 -35q-108 -26 -173 -26q-75 0 -130 29q-34 -56 -34 -123t34 -123q52 25 106 28q-16 53 -13 112q1 13 10.5 21.5t22.5 7.5t21.5 -10.5t7.5 -22.5q-3 -55 17 -109
q66 -7 131 -24zM988.5 737.5q-18.5 40.5 -51.5 69.5q-28 25 -63 38t-73 13q-17 0 -25 -1q-254 -33 -484 -148q-30 -15 -54 -36q37 -16 90 -16q60 0 158 24l145 35q48 15 98 15q28 0 51 -4q69 -17 102.5 -83t33.5 -144t-33.5 -144t-102.5 -83q-25 -5 -46 -5q-48 1 -103 16
l-145 35q-98 24 -158 24q-53 0 -90 -16q24 -21 54 -36q230 -115 484 -148q8 -1 25 -1q38 0 73 13t63 38q33 29 51.5 69.5t18.5 84.5v306q0 44 -18.5 84.5z" />
    <glyph glyph-name="uniF035" unicode="&#xf035;" 
d="M556 578q-13 0 -22 -9q-10 -10 -10 -22q0 -13 9.5 -22t22.5 -9t22 9t9 22t-9 22t-22 9zM644 490q13 0 22 -9t9 -22t-9 -22.5t-22 -9.5t-22 9.5t-9 22.5t9 22t22 9zM467 490q13 0 22 -9t9 -22t-9 -22.5t-22 -9.5t-22 9.5t-9 22.5t9 22t22 9zM556 401q13 0 22 -9t9 -22
t-9 -22t-22 -9t-22.5 9t-9.5 22q0 12 10 22q9 9 22 9zM644 667q13 0 22 -9t9 -22t-9 -22.5t-22 -9.5t-22 9.5t-9 22.5t9 22t22 9zM733 578q13 0 22 -9t9 -22t-9 -22t-22 -9t-22.5 9t-9.5 22q0 12 10 22q9 9 22 9zM1091 652q9 8 9 22q0 7 -2 11q-41 109 -124 192t-192 124
q-4 2 -11 2q-14 0 -23 -9l-148 -148l-149 148q-9 9 -22 9q-7 0 -11 -2q-110 -41 -192.5 -123.5t-123.5 -192.5q-2 -4 -2 -12q0 -13 8 -21l149 -149l-148 -149q-9 -9 -9 -22q0 -7 2 -11q41 -109 123.5 -192t192.5 -124q4 -2 12 -2q13 0 21 8l149 149l149 -148q8 -9 22 -9
q7 0 11 2q109 41 192 124t124 192q2 4 2 11q0 15 -9 22l-148 149zM270 833q66 66 152 102l134 -133l-255 -255l-133 134q36 86 102 152zM270 173q-66 66 -102 152l610 610q86 -36 152 -102t102 -152l-610 -610q-86 36 -152 102zM930 173q-66 -66 -152 -102l-134 133l255 255
l133 -134q-36 -86 -102 -152z" />
    <glyph glyph-name="uniF036" unicode="&#xf036;" horiz-adv-x="926" 
d="M683 11q39 48 76 100q28 38 48 83q19 53 19 110q0 108 -63 193q-73 102 -186 162q20 18 29 29q37 39 48 92v3q0 14 -9 23q-40 37 -85 67q-41 28 -73 57q-27 27 -45 56q-9 14 -27 14q-8 0 -16 -5q-15 -9 -15 -27q0 -8 5 -16q24 -37 55 -67q36 -33 80 -63q38 -26 64 -48
q-11 -24 -30 -46q-25 -28 -56 -46q-15 -9 -15 -28q2 -18 17 -26q125 -56 207 -166q26 -34 39.5 -74.5t13.5 -82.5q0 -45 -15 -87q-16 -37 -41 -71q-28 -40 -73 -96q-7 -7 -7 -19q0 -8 3 -14q4 -8 11.5 -13t16.5 -5q16 0 24 11zM110 32q-9 9 -10 21q-3 113 93 233l18 23
q33 35 57 82q16 36 16 77q0 51 -19.5 102t-59.5 129q-37 67 -63 140q-1 3 -1 9q0 10 6 18.5t16 11.5q3 1 9 1q10 0 18.5 -5.5t11.5 -15.5q25 -72 58 -131q42 -82 64 -140.5t22 -118.5q0 -54 -21 -102q-25 -53 -66 -97l-17 -22q-83 -103 -80 -192q1 -13 -8 -22t-22 -10h-1
q-12 0 -21 9zM553 125q-13 0 -23 10l-107 113q-25 26 -25 64q0 39 26 65q27 28 67 28q36 0 62 -23q26 21 58 21q39 0 68 -29q26 -26 26 -65q0 -37 -23 -61l-107 -113h1q-10 -10 -23 -10zM515.5 331.5q-6.5 8.5 -16.5 11.5q-11 2 -20.5 -1.5t-14.5 -12.5q-5 -8 -5 -16
q0 -13 9 -22l85 -89l85 89q9 9 9 22q0 8 -5 16q-5 9 -14.5 12.5t-20.5 1.5q-10 -3 -16.5 -11.5t-6.5 -18.5q0 -13 -9 -22.5t-22 -9.5t-22 9.5t-9 22.5q0 10 -6.5 18.5z" />
    <glyph glyph-name="uniF037" unicode="&#xf037;" horiz-adv-x="825" 
d="M697.5 972.5q27.5 -27.5 27.5 -66.5l-1 -812q1 -39 -26.5 -66.5t-66.5 -27.5h-438q-39 0 -66 27.5t-27 66.5v812q-1 39 26.5 66.5t66.5 27.5h438q39 0 66.5 -27.5zM171 928.5q-9 -9.5 -9 -22.5v-718h500v718q0 13 -9 22.5t-22 9.5h-438q-13 0 -22 -9.5zM653 71.5
q9 9.5 9 22.5v31h-219q0 -13 -9 -22t-22 -9t-22 9t-9 22h-219v-31q0 -13 9 -22t22 -9h438q13 -1 22 8.5zM296 853q9 -9 22 -9h188q13 0 22 9t9 22t-9 22t-22 9h-188q-13 0 -22 -9t-9 -22t9 -22zM233.5 478q9.5 -9 22.5 -9h125v-125q0 -13 9 -22t22 -9q13 -1 22 8.5t9 22.5
v125h125q13 0 22 9t10 22q0 13 -9.5 22t-22.5 9h-125v125q0 13 -9 22t-22 10q-13 0 -22 -9.5t-9 -22.5v-125h-125q-13 0 -22 -9t-9 -22q-1 -13 8.5 -22z" />
    <glyph glyph-name="uniF038" unicode="&#xf038;" horiz-adv-x="1144" 
d="M541 485q-90 -85 -155 -154l20 6q23 12 42 27l16 11l29 21q33 25 64 42q86 49 184 49q33 0 63 -13.5t52 -37.5q24 -30 24 -68q0 -7 -2 -21q-7 -34 -27.5 -62.5t-51.5 -45.5q-58 -30 -120 -30q-6 -1 -19 -1q-62 0 -127 19l-44 15q-50 22 -102 25q-47 -14 -88 -36l-2 -1
l-37 -47q-39 -52 -71 -109q-11 -18 -29 -56q-5 -8 -12.5 -13t-16.5 -5q-13 0 -22 9t-9 22q0 7 3 14q33 67 69 120q50 94 53 195q-14 49 -41 100q-48 81 -54 172q2 50 22 96.5t54 83.5q29 36 73 56q21 8 40 8q35 0 65 -22q18 -16 28 -39t12 -48q3 -24 3 -47q0 -108 -53 -206
l-30 -52q-28 -44 -43 -76q-13 -26 -16 -57q0 -6 -2 -18q45 51 93.5 100t120.5 119l46 44q19 46 19 92l14 164q-19 13 -29 33t-10 43q0 38 27.5 66t65.5 28q39 0 66.5 -28t27.5 -66q0 -36 -25 -63t-62 -30l-12 -152l-1 -6q68 70 119 133q-19 25 -19 56q0 38 28 65.5t66 27.5
q39 0 66.5 -27.5t27.5 -65.5q0 -39 -27.5 -66.5t-66.5 -27.5q-11 0 -22 3q-54 -66 -123 -137q15 4 58 13q64 14 122 34q-4 16 -4 26q0 40 28.5 68.5t69.5 28.5q40 0 68.5 -28.5t28.5 -68.5t-28.5 -68.5t-68.5 -28.5q-33 0 -57 18q-69 -27 -145 -42q-73 -14 -139 -40
q-35 -15 -65 -43zM210 706.5q-16 -35.5 -18 -74.5q6 -67 37 -123q2 63 12 123q2 11 11 18.5t20 7.5q13 0 22 -9.5t9 -22.5q0 -4 -1 -6q-10 -59 -10 -124l27 47q45 81 45 178q0 13 -2 39q0 26 -18 46q-10 7 -24 7q-11 0 -19 -4q-28 -13 -48 -38q-27 -29 -43 -64.5zM586 383
l-26 -16q52 5 93 5q13 0 22.5 -9t9.5 -22t-9 -22t-22 -9h-1q-68 0 -134 -12l32 -11q65 -19 125 -16q49 0 92 23q19 10 31.5 26.5t16.5 36.5q1 4 1 10q0 18 -10 29q-27 29 -69 29q-79 -1 -152 -42zM796 866q-9 -9 -9 -22t9 -22.5t22 -9.5t22 9.5t9 22.5t-9 22t-22 9t-22 -9z
M608.5 928q-9.5 -9 -9.5 -22t9.5 -22t22.5 -9t22 9t9 22t-9 22t-22 9t-22.5 -9zM965 665q9 9 9 22t-9 22.5t-22 9.5t-22 -9.5t-9 -22.5t9 -22t22 -9t22 9z" />
    <glyph glyph-name="uniF039" unicode="&#xf039;" horiz-adv-x="952" 
d="M266 698.5q9 -9.5 22 -9.5h63v-62q0 -13 9 -22.5t22 -9.5t22 9.5t9 22.5v62h63q13 0 22 9.5t9 22.5t-9 22t-22 9h-63v63q0 13 -9 22t-22 9t-22 -9t-9 -22v-63h-63q-13 0 -22 -9t-9 -22t9 -22.5zM266 492q9 9 22 9h376q13 0 22 -9t9 -22t-9 -22t-22 -9h-376q-13 0 -22 9
t-9 22t9 22zM843 774l-220 219q-8 10 -22 10h-470q-13 0 -22 -9.5t-9 -22.5v-940q0 -13 9 -22t22 -9h690q13 0 22 9t9 22v721q0 13 -9 22zM745 783h-112v113zM163 63v877h407v-188q0 -13 9 -22t22 -9h188v-658h-626zM686 367q9 -9 9 -22t-9 -22.5t-22 -9.5h-376
q-13 0 -22 9.5t-9 22.5t9 22t22 9h376q13 0 22 -9zM561 241.5q9 -9.5 9 -22.5t-9 -22t-22 -9h-251q-13 0 -22 9t-9 22t9 22.5t22 9.5h251q13 0 22 -9.5z" />
    <glyph glyph-name="uniF040" unicode="&#xf040;" 
d="M1072.5 628.5q27.5 -27.5 27.5 -65.5v-94q0 -5 -1 -7q-21 -98 -77.5 -180.5t-140.5 -137.5v-81q0 -26 -18 -44.5t-44 -18.5h-438q-26 0 -44 18.5t-18 44.5v81q-84 55 -140.5 137.5t-77.5 180.5q-1 2 -1 7v93q0 39 27.5 66.5t66.5 27.5h477l248 331q10 13 24 13q8 0 15 -4
l98 -50q7 -4 11.5 -12t4.5 -16t-2 -12l-104 -250h40q39 0 66.5 -27.5zM898 656l103 247l-48 26l-204 -273h149zM946.5 284.5q65.5 78.5 90.5 184.5h-312q-13 0 -22 9t-9 22t9 22t22 9h313v31q0 14 -9 23t-23 9h-812q-13 0 -22 -9t-9 -22v-32h312q13 0 22 -9t9 -22t-9 -22
t-22 -9h-311q25 -106 90 -184.5t172 -131.5q18 -10 18 -27q0 -5 -4 -15q-4 -8 -11.5 -12.5t-16.5 -4.5q-7 0 -13 3l-18 10v-44h438v44l-18 -10q-6 -3 -14 -3q-9 0 -17 5q-7 5 -11 12.5t-3 15.5q2 18 18 26q107 53 172.5 131.5zM747 397q9 -9 9 -22t-9 -22t-22 -9h-94v-94
q0 -13 -9 -22t-22 -9t-22 9t-9 22v94h-94q-13 0 -22 9t-9 22t9 22t22 9h94v94q0 13 9 22t22 9t22 -9t9 -22v-94h94q13 0 22 -9z" />
    <glyph glyph-name="uniF041" unicode="&#xf041;" horiz-adv-x="950" 
d="M591 821.5q9 9.5 9 22.5t-9 22t-22 9h-188q-13 0 -22 -9t-9 -22t9 -22t22 -9h188q13 -1 22 8.5zM578 335.5q-22 -32.5 -58 -45.5q-22 -9 -45 -9q-26 0 -50.5 11t-42.5 31q-32 35 -32 83q0 29 14 57l79 157q8 15 27 17q9 0 16.5 -4.5t11.5 -11.5l86 -154q16 -26 16 -61
q0 -38 -22 -70.5zM419 434q-7 -14 -7 -28q1 -20 12 -35.5t29 -22.5q9 -4 22 -4q28 0 47 22q15 17 15 41q0 17 -7 30l-58 102zM818 968q-32 32 -77 32h-532q-45 0 -77 -32t-32 -77v-625q0 -41 26.5 -71.5t67.5 -36.5v-33q0 -13 9 -22t22 -9t22 9t9 22v31h94v-62q0 -13 9 -22
t22 -9h63v-32q0 -13 9 -22t22 -9t22 9t9 22v32h63q13 -1 22 8.5t9 22.5v62h141q45 0 77 32t32 78v625q0 45 -32 77zM774.5 233q-13.5 -14 -33.5 -14h-172q-13 0 -22 -9t-9 -22v-63h-125l-1 62q1 13 -8 22.5t-23 9.5h-172q-19 0 -32.5 13.5t-13.5 33.5v172h124q13 -1 22.5 8
t9.5 23q0 13 -9 22t-22 9h-125v391q-1 19 12.5 33t33.5 14h532q20 0 33.5 -13.5t13.5 -33.5v-391h-125q-13 0 -22.5 -9t-9.5 -22t9 -22t23 -9h125v-172q0 -19 -13.5 -33z" />
    <glyph glyph-name="uniF042" unicode="&#xf042;" horiz-adv-x="1057" 
d="M957 334q0 -23 -10 -44t-29 -36l-226 -182q-24 -20 -54 -30.5t-61 -10.5h-279l-26 -21q-8 -7 -20 -7q-4 0 -12 2q-57 20 -95 68.5t-45 109.5v3q0 17 11 26l135 112q25 20 51 31q-41 68 -41 146t43 149l212 335q9 14 26 14q18 0 27 -14l211 -335q43 -67 43 -150
q0 -36 -9 -72q20 10 44 10t45.5 -10.5t36.5 -30.5q22 -28 22 -63zM360 373q18 2 27 2h181q29 0 52.5 -16.5t34.5 -42.5q48 31 74.5 80t26.5 104q0 63 -34 116l-185 294l-185 -293q-34 -54 -34 -117q0 -69 42 -127zM894 341q-3 23 -26 33q-5 2 -14 2q-16 0 -27 -9l-196 -159
q-6 -4 -12 -6q-23 -16 -50 -14h-125q-13 -1 -22.5 8t-9.5 23q0 13 9.5 22t22.5 9h124q13 0 22.5 9t9.5 22t-9 22.5t-22 9.5l-182 -1q-57 0 -101 -36l-121 -101q7 -34 28.5 -62t53.5 -42l21 16q9 7 19 7h290q45 0 76 27l226 181v0q18 16 15 39zM390 478q9 -9 22 -9q14 0 23 9
t8 22q0 10 3 20q2 13 -4.5 23.5t-19.5 13.5t-24 -4t-14 -20q-3 -16 -3 -33q0 -13 9 -22zM437 626q0 -5 4 -15q4 -7 11.5 -11.5t15.5 -4.5h2q16 0 26 15l50 80q5 8 5 17q0 8 -3 14q-4 8 -11 12.5t-16 4.5h-2q-16 0 -26 -15l-50 -80q-6 -7 -6 -17z" />
    <glyph glyph-name="u1F9E0" unicode="&#xf043;" horiz-adv-x="1199" 
d="M175 807q17 9 21 10q25 43 68 66.5t93 21.5q31 47 84 62q22 5 39 5q41 0 76 -20q36 13 77 13q49 0 95 -20q20 -9 32 -26q22 4 35 4q17 0 39 -5q39 -7 71.5 -30t54.5 -56q16 -27 18 -59q25 -3 45.5 -17.5t30.5 -36.5q12 -33 11 -65q16 -24 25 -55.5t9 -60.5q0 -32 -11 -50
q0 -1 -5 -8q13 -31 13 -59q0 -12 -4 -32q-8 -32 -31 -55t-55 -31q-2 -1 -6 -1q-10 -40 -42 -67.5t-73 -32.5q-6 -1 -18 -1q-13 0 -35 4q6 -59 5 -113v-9q0 -14 -9 -23q-11 -9 -22 -9v0q-13 0 -22 9t-9 22v10q2 76 -13 147q-13 10 -23 21q-41 47 -56 108q-7 -5 -21 -11
q-10 -2 -14 -2q84 -134 95 -294v-3q0 -11 -8 -19q-7 -9 -21 -11h-2q-13 0 -21.5 8.5t-9.5 20.5q-6 83 -35 160.5t-78 143.5h-1q-48 1 -93 25q-24 14 -44 39q-30 32 -43 76q-2 8 -2 12q-13 3 -32 5.5t-29 3.5q-22 2 -35 4q-67 6 -121 41q-32 19 -50 52t-18 71q2 23 11 45
q19 45 64 72zM914 278q16 12 24 31q-20 9 -35 24q-11 -2 -32 -2q-57 0 -109 26l-7 4l-5 3q10 -34 35 -62q18 -20 42 -30t51 -8q20 2 36 14zM666 784q-18 11 -39 11q-13 0 -19 -2q-14 -5 -22.5 -17t-9.5 -26v-3q0 -12 -8 -20q-8 -10 -21 -10h-2q-12 0 -21 8.5t-10 20.5
q-1 35 18.5 63.5t51.5 41.5q24 9 49 9q23 0 43 -7q12 18 30 33l-5 3q-34 14 -68 14t-68 -14q-4 -2 -12 -2q-11 0 -17 5q-24 17 -56 17q-15 0 -22 -2q-39 -12 -57 -52q-4 -9 -11.5 -13.5t-16.5 -4.5q-5 0 -11 2q-9 4 -20 4q-27 0 -69 -30q39 -11 62 -39q32 18 70 15
q13 -1 21.5 -10.5t7.5 -22.5t-10.5 -21.5t-22.5 -7.5q-14 2 -26.5 -3.5t-20.5 -16.5q-10 -13 -26 -13h-2q-18 2 -26 17q-8 16 -13 23q-20 22 -50 22q-20 0 -37 -10t-27 -27t-10 -32q1 -21 11.5 -39.5t28.5 -29.5q43 -25 94 -30q12 -2 34 -4q30 -3 60 -9q14 43 53 63
q33 15 69 15q13 0 20 -1q9 21 20 30q11 12 26.5 19t31.5 7q11 0 21 -3t16 -11.5t6 -18.5q0 -6 -1 -9q-4 -10 -12 -16t-19 -6q-6 0 -9 1q-10 0 -16 -7q-5 -5 -7 -15q5 -4 13 -14q26 17 58 20q31 3 58 -13t38 -45q2 -6 2 -10q0 -10 -5.5 -18t-15.5 -12q-3 -1 -10 -1
q-10 0 -18 5.5t-12 15.5q-4 8 -13 12.5t-19 3.5q-31 -7 -51 -28q-5 -5 -12.5 -6.5t-14.5 -0.5q-17 3 -23 18q-5 14 -15.5 25t-25.5 15q-5 1 -14 1q-20 0 -39 -9q-12 -9 -18.5 -22.5t-6.5 -28.5q0 -5 2 -15q9 -28 30 -51q13 -17 28 -26q30 -14 68 -16l55 -6q10 -2 18.5 2.5
t12.5 13.5l1 5q0 12 -11 20q-13 10 -13 26q0 9 6 18q10 13 25 13q11 0 19 -7q17 -13 27 -32.5t9 -41.5h2l11 -2q15 -1 30 -6q13 -5 21 -11l6 -4q39 -18 82 -18q22 0 39 4h3q17 0 27 -15q7 -9 17.5 -14.5t21.5 -5.5q6 0 9 1q15 5 25.5 15.5t14.5 25.5q2 10 2 16q0 20 -9 36.5
t-26 17.5q-9 1 -17.5 -2.5t-13.5 -11.5q-9 -14 -26 -14q-9 0 -17 5q-15 9 -15 27q0 8 5 16q14 20 35.5 31.5t45.5 11.5q23 0 42 -10q-1 0 -0.5 6t0.5 7q-2 16 -4 26q-7 32 -19 55q-8 14 -9 28q3 19 -6 38q-5 8 -13 13q-12 7 -24 7q-11 0 -21 -6q-11 -6 -21 -17
q33 -13 55 -39q7 -8 7 -19q0 -16 -12 -25q-8 -7 -19 -7q-16 0 -25 12q-20 25 -53 25q-33 -2 -53 -26q-12 -15 -29 -12q-8 1 -15 6t-10 13q-2 8 -2 12q0 12 7 20q15 18 36 30t44 16q18 44 61 66q2 10 2 15q0 16 -9 29q-14 21 -36 36t-48 21q-12 2 -18 2q-24 0 -45 -12
q-15 -8 -32 -29q17 -20 25 -41q2 -4 2 -12q0 -10 -6 -19q-12 -15 -30 -12t-24 20q-10 19 -28 30z" />
    <glyph glyph-name="uniF044" unicode="&#xf044;" horiz-adv-x="1165" 
d="M520 428q32 -69 32 -157v-241q0 -12 -8.5 -21t-21.5 -9q-12 0 -21 9t-9 21v241q2 46 -11 90t-39 80q9 -25 9 -53q0 -8 -2 -26q-7 -34 -29.5 -60.5t-54.5 -37.5q-26 -10 -55 -10q-57 0 -102 34q-62 50 -85 125q-23 67 -23 136q0 119 62 220q25 40 61 69q48 34 105 34
q35 0 62 -11q43 -17 70 -55t29 -84q2 -37 -12 -72t-42 -61q-1 -7 -1 -26q-1 -14 -1 -29l-1 -4q56 -33 88 -102zM391 392q0 25 -14 47l-25 -6q-4 -2 -8 -2q-12 0 -21 9t-9 22q0 10 6.5 18.5t17.5 10.5l27 7q5 18 7 40q1 5 1 27q1 6 1 17l-30 17q-7 4 -11 11t-4 15q0 12 9 21
t21 9q10 0 15 -4l23 -13q17 16 25 37.5t7 44.5q-1 28 -18 51t-43 34q-22 8 -39 7q-39 0 -70 -23q-28 -22 -46 -52q-52 -87 -52 -188q0 -60 19 -116q17 -58 64 -97q29 -21 65 -21q20 0 34 5q18 7 30.5 21.5t15.5 33.5q2 12 2 17zM270 522q-1 11 -10 18.5t-20 7.5
q-12 0 -21 -8.5t-9 -21.5v-5l5 -23q2 -11 10.5 -17.5t18.5 -6.5q4 0 6 1q11 2 17.5 10.5t6.5 18.5v6q-2 6 -4 20zM346 717q6 8 6 19q0 12 -8.5 21t-21.5 9q-5 0 -7 -1q-72 -18 -99 -127q-1 -2 -1 -7q0 -13 9 -21.5t21 -8.5q11 0 19 6t10 16q20 74 56 84q10 2 16 10z
M1065 549q0 -69 -23 -136q-23 -75 -85 -125q-45 -34 -102 -34q-29 0 -55 10q-32 11 -54.5 37.5t-29.5 60.5q-2 18 -2 26q0 28 9 53q-26 -36 -39 -80t-11 -90v-241q0 -12 -9 -21t-21 -9q-13 0 -21.5 9t-8.5 21v241q0 87 32 156.5t87 102.5v1l-1 32l-1 26q-28 25 -42.5 60
t-12.5 73q3 46 30 84t70 55q31 11 62 11q58 0 105 -35q36 -27 61 -68q62 -101 62 -220zM1004 549q0 102 -53 188q-16 30 -45 52q-31 23 -70 23q-21 0 -39 -7q-26 -11 -43 -34t-18 -51q-2 -23 7 -45t26 -38q9 2 18.5 -2t14.5 -12q4 -7 4 -15t-4 -15t-11 -11v-17q1 -11 1 -25
q1 -19 8 -42l27 -7q11 -2 17.5 -10.5t6.5 -18.5q0 -13 -9 -22t-21 -9q-4 0 -8 2l-25 6q-14 -23 -14 -49q0 -10 1 -15q4 -19 16 -33.5t30 -21.5q14 -5 34 -5q38 0 66 21q47 39 64 97q19 56 19 116zM872 740q0 11 -7.5 19t-18.5 10q-3 1 -8 1q-20 0 -37 -15q-22 -22 -22 -54
q1 -12 10 -20t21 -8h1q12 1 20.5 9.5t8.5 20.5v1q0 4 1 5q12 0 20.5 7.5t10.5 18.5v5z" />
    <glyph glyph-name="uniF045" unicode="&#xf045;" 
d="M1100 647q0 -42 -32 -84.5t-76 -62.5q-25 -12 -58 -24q-46 -17 -72 -32l-28 -19q-34 -26 -75 -40q-12 -3 -25 -3q-30 0 -56 17q-14 10 -20 16q-41 -44 -96 -77l-14 -9q-94 -63 -175 -142q-25 -24 -49 -40t-54 -16q-18 0 -34 8q-31 14 -42 42.5t-16 67.5q-9 69 -30 133
q-4 14 -14 42q-15 43 -29 100q-5 30 -5 53q0 73 34 138.5t95 109.5q68 44 148 44q29 0 56 -6q74 -18 139 -59q57 -29 101 -77q5 2 22 7l12 3q24 7 54 7q15 0 23 -1l207 -8q54 -2 78 -23t29 -47q2 -12 2 -18zM632 485q4 37 4 85q0 44 -5 101q0 5 1 7q-37 46 -91 72
q-58 36 -121 52q-22 5 -41 5q-62 0 -115 -34q-48 -34 -74.5 -85.5t-26.5 -108.5q0 -24 4 -43q9 -46 26 -91q10 -24 15 -44q21 -65 32 -144q5 -53 22 -62q21 -9 67 36q82 82 184 150l14 9q66 35 105 95zM1019 601.5q22 30.5 18 50.5q-4 18 -49 21l-206 8q-6 1 -18 1
q-17 0 -39 -5l-15 -4q-10 -2 -14 -4l-2 -4q4 -41 4 -94q0 -59 -5 -100q9 -14 19 -19q12 -10 30 -7q29 10 56 31q11 8 33 22q39 21 81 36q29 11 53 22v0q32 15 54 45.5zM307 484q-3 10 -11 16t-19 6q-6 0 -9 -1q-10 -2 -16 -10.5t-6 -18.5q0 -6 1 -9q6 -24 10 -36
q2 -10 10.5 -16.5t19.5 -6.5q5 0 8 1q13 4 19 15t3 23zM361 738q-11 8 -24 6q-56 -9 -86 -58t-28 -107q0 -12 9 -21t22 -9h1q13 1 22 10.5t8 22.5q-1 35 16 65t47 35q13 2 20 12.5t5 23.5v0q-2 13 -12 20zM842 609q0 8 -2 12q-7 13 -18 16q-9 3 -19 3q-17 0 -32 -9t-22 -25
q-11 -28 -8 -56q0 -12 9 -21t22 -9h1q14 1 22.5 10.5t7.5 22.5v6q0 9 3 19q11 -2 20.5 3.5t13.5 15.5v0q2 4 2 12z" />
    <glyph glyph-name="uniF046" unicode="&#xf046;" 
d="M1100 338v-236q0 -22 -11.5 -40.5t-31.5 -27.5q-14 -7 -32 -7q-28 0 -48 18q-83 71 -187 117q-44 20 -70.5 60.5t-25.5 89.5v316q-59 12 -94 60q-35 -48 -94 -60v-316q1 -49 -25.5 -89.5t-70.5 -60.5q-104 -46 -187 -117q-19 -18 -48 -18q-18 0 -32 7q-20 9 -31.5 27.5
t-11.5 40.5v236q-1 94 22 193q25 110 89.5 202t158.5 153q20 14 47 14q24 0 42 -11q22 -12 34.5 -33t12.5 -46v-117q28 10 45.5 34.5t17.5 53.5v188q0 13 9 22t22 9t22 -9t9 -22v-188q0 -29 17.5 -53.5t45.5 -34.5v117q0 25 12.5 46t34.5 33q18 11 42 11q27 0 47 -14
q94 -61 158.5 -153t89.5 -202q23 -99 22 -193zM428.5 257q16.5 25 15.5 55v153q-43 -12 -88 -12q-65 0 -124 25q-9 4 -14 12t-5 17q0 4 2 12q4 9 12 14t17 5q4 0 12 -2q49 -20 101 -20q45 0 87 15v279q0 16 -15 24q-4 2 -12 4q-10 -2 -14 -4q-84 -56 -141 -138.5t-79 -179.5
q-21 -89 -20 -178v-236v-2q0 -6 7 -10q1 -1 4 -1q5 0 8 3q45 38 98 72q-41 19 -72 47q-10 9 -10 23q0 11 8 21q9 11 24 11q10 0 20 -8q43 -40 103 -54l14 7t18 8q27 13 43.5 38zM1038 102v234q-44 -69 -107 -113q-7 -6 -17 -6q-17 0 -26 14q-6 8 -6 18q0 17 14 26
q49 34 83 85.5t47 110.5l1 2q-5 27 -10 43q-22 97 -79 179.5t-141 138.5q-4 2 -14 4q-8 -2 -12 -4q-15 -8 -15 -24v-498q-1 -30 15.5 -55t43.5 -38q115 -50 203 -127q5 -5 12 -2q8 3 8 12z" />
    <glyph glyph-name="heart" unicode="&#xf047;" horiz-adv-x="1000" 
d="M823 623q-9 0 -18 6l-3 2q41 -67 39 -142q0 -117 -52 -217l-17 -35q-33 -67 -63 -115t-74.5 -85t-98.5 -37q-15 0 -30 3q-50 10 -87 37t-61.5 58.5t-52.5 77.5q-41 67 -66.5 130.5t-25.5 130.5q0 12 2 34l-6 3q-21 14 -33.5 36t-12.5 47l1 11q6 45 27 82q40 83 40 143
q0 50 -29 78q-9 9 -9 23q0 7 2 10q12 39 44.5 63t72.5 24q6 0 18 -2q12 0 20 -10q64 -70 95 -164q30 36 70 58l-24 88q-3 12 3.5 23t18.5 14q3 1 8 1q10 0 18.5 -6t11.5 -16l22 -79q19 7 43 10l11 63q2 13 12.5 20t23.5 5t20.5 -12.5t5.5 -23.5l-10 -55q37 -7 65.5 -32
t42.5 -60q47 -9 87 -28q15 -5 18 -19q7 -18 7 -39q0 -31 -15.5 -57.5t-43.5 -41.5q-8 -5 -17 -5zM227 563q-4 -19 13 -35q8 -2 13 -2q15 0 25 10q24 23 36 52q9 16 25 50q38 78 58 110q0 2 -1 3q-18 98 -83 177q-17 1 -31 -7t-21 -22q33 -43 33 -105q0 -77 -46 -171
q-16 -27 -21 -60zM779 489q0 45 -13.5 76t-47.5 81q-8 -1 -19 -5q-26 -11 -44.5 -33t-24.5 -50q-2 -11 -10.5 -18t-19.5 -7h-7q-13 3 -20 13.5t-4 23.5q7 40 32.5 73t63.5 51q36 18 76 18q41 0 81 -20q14 14 14 33v9q-59 22 -107 22q-52 0 -98 -26q-41 -24 -69 -62.5
t-39 -85.5q-5 -17 -22 -22q-3 -1 -8 -1q-14 0 -23 9q-9 11 -9 22q0 3 2 9q13 58 49 106t88 79q53 30 110 34q-20 23 -50 28q-49 3 -93 -16t-76 -56q-57 -75 -95 -163l-26 -52q-17 -40 -54 -72q-17 -14 -37 -20q-2 -10 -2 -30q0 -57 22.5 -113.5t58.5 -114.5
q40 -66 74.5 -100t85.5 -45q6 -1 17 -1q37 0 70 31t57 71t54 100l18 36q45 87 45 188zM403 373.5q7 8.5 7 19.5l-1 8q-6 18 -9 38q-2 8 -7.5 15t-12.5 9q-4 2 -11 2q-13 0 -21 -7q-13 -13 -10 -31q6 -28 10 -42q3 -11 11.5 -17.5t18.5 -6.5q4 0 8 2q10 2 17 10.5zM454 289
q-4 7 -11.5 11.5t-15.5 4.5q-18 0 -27 -15q-4 -7 -4 -16q0 -10 4 -15q26 -48 63 -91q11 -11 24 -11t21 7q11 9 11 24q0 10 -8 20v0q-28 34 -57 81z" />
    <glyph glyph-name="uniF048" unicode="&#xf048;" horiz-adv-x="1205" 
d="M1088 884.5q17 -37.5 17 -77.5l-1 -16l-9 -184q-4 -76 -12 -126t-35.5 -99.5t-81.5 -82.5q-102 -59 -221 -56l-13 1q1 -6 1 -19q0 -48 -19.5 -92.5t-55.5 -78.5l-7 -5q-10 -8 -30 -26q-3 -10 -11 -16.5t-19 -6.5q-9 0 -16.5 4.5t-11.5 12.5q-15 25 -31 41q-41 38 -53 91
q-4 23 -4 53q0 26 2 39l1 20l-36 5q-27 3 -54 9q-57 18 -93 58q-8 -7 -22 -14q-18 -7 -39 -7q-37 0 -65 21q-32 23 -49.5 58t-14.5 74l-1 38q-4 114 -4 184l1 69q-3 58 15 121q25 71 79.5 92.5t111.5 22.5q68 0 142 -11l26 -3q10 -1 25 -3t35 -3q54 -2 82 -2q98 0 206 11
l38 3q8 0 25.5 1.5t31.5 1.5q81 0 123 -37q30 -28 47 -65.5zM508 393.5q20 31.5 52 50.5q0 30 -16.5 55.5t-44.5 36.5q-34 10 -73 10q-13 0 -21.5 9.5t-8.5 22.5t9 22t22 9h2q45 0 92 -14q12 -6 26 -14q24 26 32 62q2 11 10.5 18.5t20.5 7.5q13 0 22 -9t9 -22q0 -4 -1 -6
q-9 -53 -47 -94q23 -33 28 -71q28 5 51 5q16 0 52 -4t53 -4q36 0 55 15q25 24 30 60q15 98 18 196q-54 -10 -118 -13q2 -14 8 -25l4 -6q18 -30 19 -61q-3 -36 -22 -64q-9 -12 -14 -28q-2 -10 -11 -17t-20 -7h-6q-13 3 -20 14t-4 24q6 26 21 46q10 14 13 32q-3 18 -12 31
l-3 7q-13 22 -15 50l-54 -1q-41 0 -123 4l-1 -16q0 -7 2 -23q2 -13 -5 -24t-20 -13h-6q-11 0 -20 7.5t-11 18.5q-2 22 -2 33q0 14 1 21q-20 1 -35.5 3t-26.5 3l-31 3l-1 -42q0 -67 -3 -101q-1 -17 -1 -50q0 -36 -1 -54q30 -10 61 -9h2q13 0 21.5 -9t9.5 -21q1 -13 -8 -22.5
t-22 -10.5h-9q-34 0 -65 9q-7 -23 -16 -42q28 -34 69 -46q16 -4 44 -8l34 -4q5 38 25 69.5zM1033 853.5q-11 28.5 -34 48.5q-25 22 -81 22q-12 0 -28 -1t-24 -2l-39 -3q-110 -11 -211 -11q-29 0 -85 2q-34 2 -90 10q-73 10 -133 10q-57 -1 -88 -18.5t-44 -54.5
q-14 -45 -12 -101l-1 -68q0 -67 4 -181l1 -39q1 -32 8.5 -50t26.5 -30q20 -12 33 -12q7 0 13 3q20 13 32 32.5t14 41.5q8 45 6 90q0 35 1 53q3 48 3 98q0 32 1 48q-7 0 -19 2q-12 1 -20.5 10t-8.5 21q0 13 9.5 22t22.5 9h4q106 -12 189 -18.5t164 -6.5q156 0 287 29q2 1 8 1
q13 0 22 -9.5t9 -22.5q0 -10 -7 -19t-18 -11q-2 -1 -5 -1q-2 -110 -18 -218q-9 -58 -53 -99q-37 -29 -96 -29q-12 0 -59 5q-22 3 -44 3q-61 0 -93.5 -27t-35.5 -79l-4 -66q-2 -24 -2 -35q0 -21 3 -41q10 -37 38 -61l15 -17l18 15l4 3q26 26 40.5 59t14.5 69q0 13 -1 19
q-6 0 -9 1q-12 1 -19.5 10t-7.5 21q0 13 9 22t22 9h3q45 -5 77 -5q113 0 188 46q42 26 62.5 65t27 82t9.5 112l10 183q2 31 -9 59.5z" />
    <glyph glyph-name="uniF049" unicode="&#xf049;" horiz-adv-x="1165" 
d="M765 44q107 67 180 176q72 95 107 210q13 42 13 88q0 83 -41 154q-59 83 -147 133q-47 26 -76.5 70.5t-35.5 97.5q-2 11 -10.5 19t-20.5 8h-114q-13 0 -22 -8.5t-9 -21.5q0 -80 14 -149q15 -77 12 -155q-7 -61 -38.5 -114t-81.5 -88q-76 -46 -153 -66q-27 -9 -46 -16
q-89 -25 -151 -94q-22 -32 -33.5 -69t-11.5 -75q0 -23 2 -35q1 -12 10 -20t21 -8h113q17 0 26 14q4 7 4 16t-2 13q-6 12 -6 26q0 12 4 21t11.5 15t17.5 7q25 -6 42 -26l37 -39q51 -65 126 -106q47 -22 103 -22q85 2 156 44zM248.5 238q-23.5 -16 -34.5 -43q-11 -26 -8 -52
h-43q-2 57 31 107q50 53 122 73l46 15q91 26 168 75q62 43 100.5 107t46.5 139q1 12 1 37q0 71 -13 135q-10 49 -13 107l56 -1q13 -58 48 -106t87 -78q76 -42 128 -113q31 -59 31 -122q0 -34 -11 -72q-29 -99 -97 -189q-64 -97 -160 -159q-55 -34 -120 -34q-43 0 -82 15
q-62 35 -106 91l-39 41q-32 38 -84 44h-2q-29 -1 -52.5 -17zM503 270q-10 0 -19 6q-14 11 -12 29q3 18 20 25q16 6 33 15q10 4 14 4q8 0 15.5 -4.5t12.5 -12.5q4 -10 4 -14q0 -8 -4.5 -15.5t-12.5 -12.5q-22 -12 -38 -18v0q-4 -2 -13 -2zM630 360q-18 5 -23 22q-1 2 -1 8
q0 13 10 23q42 44 70 95q4 7 11.5 11t15.5 4t15 -4q16 -10 16 -27q0 -8 -4 -15q-31 -59 -80 -108v0q-13 -14 -30 -9z" />
    <glyph glyph-name="uniF050" unicode="&#xf050;" horiz-adv-x="923" 
d="M118 324q0 59 5 131q7 100 24 199q-36 72 -45 152q-2 18 -2 28q0 55 29 102q50 67 167 67l24 -1q111 -2 206 -60l12 -10q34 30 74.5 48.5t79.5 18.5q16 0 36 -5q71 -22 89 -111q6 -28 6 -58q0 -51 -14.5 -99t-42.5 -115q13 -88 17 -158q5 -58 5 -105q0 -122 -25 -235
q-4 -28 -19.5 -53.5t-38.5 -43.5q-21 -12 -45 -12q-20 0 -38 9q-28 13 -44 37q-17 27 -26 57.5t-18 78.5q-10 60 -20 88q-20 62 -61 120q-41 -58 -61 -122q-11 -33 -20 -85q-9 -45 -17 -74t-22 -55q-15 -30 -48 -45q-19 -9 -41 -9q-24 0 -42 12q-44 32 -54 81
q-30 95 -30 227zM724 350q0 38 -1 57q-1 51 -10 134q-6 0 -9 1q-9 4 -14.5 12t-5.5 17q0 6 3 12l16 38q29 69 43 114t14 91q0 25 -4 45q-10 52 -45 63q-9 3 -19 3q-25 0 -54.5 -13.5t-56.5 -36.5q32 -45 50 -100q2 -6 2 -10q0 -13 -9.5 -22t-22.5 -9q-10 0 -18 6t-11 15
q-22 76 -81 123q-81 49 -174 49l-23 1q-85 0 -114 -41q-18 -30 -18 -64q0 -8 2 -22q17 -119 89 -218q6 -7 6 -19q0 -13 -9.5 -22t-22.5 -9q-17 0 -27 16l-3 5q-8 -65 -12 -124q-3 -43 -3 -86q0 -111 19 -213q12 -61 33 -74q6 -3 10 -3q7 0 16 4q18 10 23 29q15 43 29 107
q11 46 19.5 76t20.5 58q29 70 78 125q10 10 23 10q14 0 24 -10q65 -76 95 -167q10 -28 22 -90q8 -39 14.5 -65t17.5 -50q6 -16 21 -23q9 -4 16 -4q6 0 9 3q21 13 35 77q17 95 17 204zM275 845v2q0 13 -9 22t-22 9q-12 0 -21 -8.5t-10 -21.5q-3 -90 45 -162q9 -14 26 -14
q13 0 22.5 9t9.5 22q0 9 -6 18q-38 57 -35 124z" />
    <glyph glyph-name="uniF051" unicode="&#xf051;" horiz-adv-x="924" 
d="M784 449q5 -58 5 -105q0 -122 -25 -235q-4 -28 -19.5 -53.5t-38.5 -43.5q-21 -12 -45 -12q-20 0 -38 9q-28 13 -44 37q-18 27 -27 58t-18 79q-9 51 -20 87q-22 66 -60 121q-41 -56 -61 -122q-8 -23 -13.5 -51t-7.5 -36q-9 -47 -16.5 -74.5t-22.5 -53.5q-15 -31 -49 -45
q-18 -9 -40 -9q-24 0 -42 12q-20 15 -34.5 36t-19.5 45q-30 95 -30 228q0 59 5 131q7 100 24 199q-36 72 -45 153q-2 10 -2 30q0 56 29 99q50 67 166 67l25 -1q111 0 206 -60l12 -9q34 29 75 47.5t79 18.5q22 0 37 -5q30 -8 54.5 -34t34.5 -76q6 -28 6 -58q0 -51 -14.5 -100
t-42.5 -115q12 -73 17 -159zM746.5 730q14.5 46 14.5 93q0 25 -4 45q-11 54 -46 63q-9 3 -19 3q-24 0 -54 -13t-57 -36q33 -46 51 -101q1 -3 1 -9q0 -10 -5.5 -18.5t-15.5 -11.5q-8 -2 -11 -2q-10 0 -17.5 6t-11.5 16q-10 36 -31 67.5t-50 54.5q-30 21 -66 32v0l-80 -106
l110 -137q7 -8 7 -20q0 -9 -5 -17l-63 -94q-9 -14 -26 -14q-9 0 -17 5q-14 9 -14 27q0 9 5 17l50 75l-111 138q-7 11 -7 19q0 10 7 19l76 102q-14 2 -40 4q-104 5 -137 -40q-18 -30 -18 -65q0 -8 2 -22q17 -119 89 -218q3 -6 3 -14t-3.5 -15.5t-10.5 -11.5q-8 -5 -17 -5
q-16 0 -25 12l-3 5q-8 -65 -12 -124q-3 -43 -3 -87q0 -111 19 -213q12 -61 33 -74q4 -2 9 -2q6 0 17 4q18 7 23 28q14 41 29 108q21 90 40 134q28 68 78 124q10 10 24 10t23 -10q64 -72 95 -167q10 -30 22 -90q1 -6 10 -44t23 -71q5 -15 21 -22q9 -4 16 -4q5 0 9 2
q22 13 34 77q18 94 18 205q0 38 -1 57q-4 76 -11 133l-8 2q-9 4 -14.5 12t-5.5 17q0 6 3 12l15 38q29 66 43.5 112z" />
    <glyph glyph-name="u1F443" unicode="&#xf052;" horiz-adv-x="1054" 
d="M954 287q0 -14 -1 -21q-7 -40 -32 -74q-29 -40 -73 -62.5t-94 -21.5q-32 0 -62 9q-29 -43 -59 -70q-21 -21 -48.5 -33.5t-57.5 -13.5q-30 1 -57.5 13.5t-48.5 33.5q-36 35 -58 70l-2 -1q-32 -8 -60 -8q-49 -1 -94 21.5t-74 62.5q-25 34 -32 74q-1 7 -1 21q0 63 37 110
q29 38 70 72v0q61 120 101 240q31 86 55 141q19 52 54 96q20 25 49 39t61 15q32 -1 61 -15t49 -39q34 -43 54 -96q24 -55 55 -141q40 -120 101 -240v0q41 -34 70 -72q37 -47 37 -110zM866 361q-32 41 -77 75l-95 79q-11 9 -11 24q0 12 7 20q9 11 24 11q12 0 20 -7l1 -1
q-25 63 -48 126l-13 36q-30 78 -40 102q-16 41 -44 79q-12 14 -28.5 22.5t-34.5 9.5q-18 -1 -34.5 -9.5t-28.5 -22.5q-27 -36 -44 -79q-10 -24 -40 -102l-13 -36q-22 -63 -48 -126l1 1q8 7 20 7q15 0 24 -11q7 -8 7 -20q0 -15 -11 -24l-95 -79q-45 -34 -77 -75
q-30 -37 -25 -85q5 -26 21 -47q20 -28 50 -43.5t64 -15.5q7 0 21 2q-16 16 -30 25q-7 4 -11.5 11.5t-4.5 15.5q0 18 17 28q6 3 14 3t18 -5q56 -39 89 -94q23 -36 51 -62q35 -31 65 -31q31 0 65 31q28 26 51 62q33 55 89 94q8 5 18 5q8 0 14 -3q17 -10 17 -28
q0 -8 -4.5 -15.5t-11.5 -11.5q-14 -9 -30 -25q7 -1 20 -1q34 0 64.5 15t50.5 43q17 24 21 47q5 48 -25 85z" />
    <glyph glyph-name="u1F442" unicode="&#xf053;" horiz-adv-x="908" 
d="M607 4q40 7 72.5 31.5t49.5 62.5q3 6 3 12q0 9 -5.5 17t-14.5 12q-6 3 -12 3q-9 0 -17 -5.5t-12 -14.5q-11 -23 -31 -38t-45 -19q-12 -3 -24 -3q-40 0 -69 26q-23 24 -40 57l-12 21q-43 69 -102 134q-20 22 -38 44q-125 148 -144 284q-4 28 -4 43q0 62 28 118.5t77 93.5
q36 27 77.5 41t84.5 14q60 0 111 -25q68 -34 121.5 -87.5t87.5 -121.5q7 -16 27 -18q8 0 15.5 4t12.5 11q5 8 5 16t-5 16q-38 77 -99.5 138t-138.5 99q-66 30 -138 30q-54 0 -105 -17t-94 -50q-61 -46 -95 -115.5t-34 -146.5q0 -29 4 -52q22 -152 158 -315q12 -15 38 -45
q54 -59 97 -125l11 -19q21 -41 50 -72q23 -21 52 -32.5t60 -10.5q21 0 37 4zM705 333.5q7 -10.5 4 -23.5q-18 -87 -64 -111q-18 -8 -35 -8q-21 0 -43 11q-24 13 -37.5 37t-11.5 52q0 24 -11 40q-6 6 -31 27q-28 19 -49 44q-18 22 -30 51t-12 60t14 58q11 24 31.5 42t46.5 25
q19 4 42 4q59 0 110 -30q-14 59 -48 110t-83 85q-33 21 -73 21q-21 0 -40 -6q-32 -9 -57.5 -30t-40.5 -51q-17 -43 -17 -88q0 -41 14 -81q1 -3 1 -9q0 -10 -6 -18.5t-16 -11.5q-3 -1 -8 -1q-11 0 -19.5 6.5t-11.5 16.5q-16 50 -16 97q0 58 23 115q20 42 56 72t81 43
q25 8 57 8q58 0 108 -32q80 -56 124.5 -143t44.5 -184q0 -61 -17 -115q-3 -10 -11.5 -16.5t-18.5 -6.5l-9 1q-13 5 -19 15q-4 7 -4 16q0 5 1 8q15 53 14 104q-35 19 -65.5 31.5t-57.5 12.5q-11 0 -21 -3q-27 -9 -40 -36q-5 -14 -5 -33q0 -39 27 -68q15 -17 38 -34
q21 -15 39 -33q27 -33 27 -77q2 -21 4.5 -28.5t9.5 -10.5q15 -7 23 -3q6 3 15 18t16 49q3 14 13 20q11 8 24 5t20 -13.5z" />
    <glyph glyph-name="u1F441" unicode="&#xf054;" 
d="M1100 548l-1 -6q-25 -110 -84.5 -196.5t-136.5 -141.5t-155 -76q-74 -20 -148 -20q-136 3 -258.5 62.5t-208.5 164.5q-1 0 -1 1q-2 3 -4 7l-2 3q-1 4 -1 12v1v0v0q14 120 67 222t136.5 170t183.5 91q55 13 114 13q101 0 198.5 -36t175.5 -102.5t122 -153.5v0q0 -2 1 -3
l2 -8v-4zM323.5 684.5q-79.5 -74.5 -122.5 -183.5q76 80 174.5 130t209.5 65q10 2 30 4h1q35 4 78 4q130 0 252 -45q-70 64 -159 98t-184 34q-53 0 -102 -10q-98 -22 -177.5 -96.5zM832 627q-63 13 -122 14q31 -42 31 -93q0 -43 -23 -81q-22 -35 -57 -55t-76 -20q-8 0 -24 2
q-47 8 -82.5 39.5t-45.5 77.5q-3 13 3.5 24t19.5 14q12 3 23 -3.5t14 -19.5q8 -32 35 -52t61 -19q33 1 58 24t30 56q1 5 1 14q0 29 -17 53.5t-45 34.5l-22 -3q-145 -19 -269 -106q5 -68 43 -124t98 -86.5t129 -28.5q68 3 125.5 38.5t90.5 94.5t33 127q0 41 -12 78z
M838.5 252.5q65.5 46.5 117.5 119.5t77 166q-61 48 -133 70q6 -31 6 -64q0 -74 -32.5 -141t-91.5 -113t-134 -61q-31 -6 -64 -6q-74 0 -141 32.5t-113 91.5t-61 134q-56 -53 -99 -122q85 -91 190.5 -139.5t216.5 -48.5q69 0 130 17q66 18 131.5 64.5z" />
    <glyph glyph-name="uniF055" unicode="&#xf055;" horiz-adv-x="867" 
d="M736 471q17 0 26 -14q5 -8 5 -17q0 -8 -3 -14q-7 -16 -27 -18l-12 -1q-23 -72 -64 -143q-1 -5 -7 -13q-92 -154 -248 -247q-8 -5 -17 -5q-5 0 -15 4q-7 4 -11.5 12t-4.5 16t4.5 15.5t11.5 11.5q136 80 221 216q-55 115 -55 240q0 31 3 59q-63 49 -146 101
q-114 73 -184.5 135.5t-109.5 146.5q-3 6 -3 13q0 9 5 16.5t13 11.5q6 3 14 3q9 0 16 -4.5t11 -13.5q34 -73 99.5 -130t171.5 -125q108 -69 176.5 -125t112.5 -132l14 1v0h3zM668 434q-28 48 -66 86q0 -93 31 -176v0q22 46 35 90z" />
    <glyph glyph-name="uniF056" unicode="&#xf056;" 
d="M1065 310q35 -52 35 -114v-87q0 -45 -32 -77t-77 -32h-782q-45 0 -77 32t-32 77v86q0 63 35 115t94 75l122 49q54 22 82 73q-34 49 -50 105q-11 3 -20 9q-15 8 -23.5 23.5t-7.5 32.5q2 15 11 28.5t23 21.5q1 74 33 137t85 99.5t116 36.5q36 0 67 -12q34 -14 67 -21
q8 -1 24 -1q32 0 57 7q-7 -40 -37 -71q54 -77 56 -175q28 -17 34 -50q1 -17 -7.5 -32.5t-23.5 -23.5q-9 -6 -20 -9q-17 -58 -50 -104q28 -52 82 -74l123 -49q58 -23 93 -75zM534 420.5q-32 13.5 -58 37.5q-22 -32 -48 -51l172 -147l172 147q-26 19 -48 51q-26 -24 -58 -37.5
t-66 -14.5q-34 1 -66 14.5zM505 901.5q-43 -36.5 -63 -95.5q109 11 203 72q8 5 18 5q13 0 22 -9q28 -28 65 -48q-18 48 -58.5 78.5t-91.5 33.5q-52 0 -95 -36.5zM428 721q0 -62 25 -120.5t64.5 -95t82.5 -36.5t82.5 36.5t64.5 95t25 120.5q0 10 -2 30q-61 19 -111 62
q-105 -62 -230 -71q-1 -7 -1 -21zM1014 274.5q-24 35.5 -65 52.5l-25 10l-15 -46q17 -13 26 -32.5t9 -40.5q0 -25 -13 -47q-13 -23 -35 -35.5t-47 -12.5q-19 0 -32 5q-29 10 -46 35t-17 55q0 11 1 17q7 34 34 56t61 22l16 47l-36 15l-210 -180q-7 -7 -20 -7q-12 0 -20 7
l-179 153q11 -12 15 -27l48 -132q2 -8 2 -11q0 -7 -3 -13q-5 -12 -17 -16l-30 -11q-8 -2 -11 -2q-9 0 -17 5.5t-12 15.5q-2 6 -2 10q0 10 5.5 18t15.5 12l-37 103q-6 13 -18.5 21t-26.5 8q-10 0 -15 -2q-14 -5 -22.5 -17t-8.5 -26q0 -8 3 -16l37 -103v0q6 2 10 2q11 0 21 -8
q14 -12 11 -29q-3 -18 -21 -24l-29 -11q-8 -2 -11 -2q-10 0 -18 6t-11 15l-48 132q-7 21 -7 38l1 13q-20 -20 -31.5 -47t-10.5 -55v-86q-1 -19 12.5 -32.5t33.5 -13.5h782q19 -1 33 12.5t14 33.5l-1 87q1 43 -23 78.5zM828 241q-9 -9 -9 -22t9 -22t22 -9q13 -1 22 8.5
t9 22.5t-9 22t-22 9t-22 -9z" />
    <glyph glyph-name="uniF057" unicode="&#xf057;" 
d="M1065 310q35 -52 35 -114v-87q0 -45 -32 -77t-77 -32h-782q-45 0 -77 32t-32 77v86q0 63 35 115t94 75l122 49q45 18 73 60q-78 24 -143 55q-14 7 -17 19q-2 6 -2 10q0 8 5 15q40 71 69 149q25 68 57 128q36 70 110 108q45 22 97 22t97 -22q74 -38 110 -108
q27 -50 57 -128q29 -78 69 -149q4 -7 4 -16q0 -6 -1 -9q-5 -13 -17 -19q-66 -32 -144 -55q30 -42 74 -60l123 -49q58 -23 93 -75zM750 718v1q-41 21 -69 48q-105 -67 -229 -79q5 -57 27.5 -107.5t54.5 -81t66 -30.5q32 0 58 23.5t43 50.5h-1q50 80 50 175zM428 407l172 -147
l172 147q-31 24 -53 58q-22 -27 -53 -42t-66 -17q-35 2 -66 17t-53 42q-22 -34 -53 -58zM862 592q-29 55 -50 112q-3 -74 -32 -143q44 14 82 31zM403 742q4 3 14 5q67 6 132.5 25.5t114.5 60.5q10 9 23 7q13 0 22 -11q31 -37 75 -57q-16 38 -32 69q-27 53 -82 81
q-33 15 -70 15t-70 -15q-55 -28 -82 -81q-25 -49 -45 -99zM338 592q35 -16 83 -31q-28 67 -33 144v0q-20 -57 -50 -113zM1014 274.5q-24 35.5 -65 52.5l-25 10l-15 -46q17 -13 26 -32.5t9 -40.5q0 -25 -13 -47q-13 -23 -35 -35.5t-47 -12.5q-19 0 -32 5q-29 10 -46 35
t-17 55q0 11 1 17q7 34 34 56t61 22l16 47l-36 14l-210 -179q-7 -7 -20 -7q-12 0 -20 7l-178 153q9 -13 15 -27l47 -132q2 -8 2 -11q0 -10 -5.5 -18t-14.5 -11l-30 -11q-6 -2 -10 -2q-10 0 -17.5 5.5t-11.5 15.5q-2 8 -2 11q0 9 5.5 17t14.5 12l-37 102q-5 15 -17.5 23
t-27.5 8q-10 0 -15 -2q-20 -8 -27 -25q-4 -8 -4 -19q0 -8 3 -16l37 -103v0q6 2 10 2q11 0 21 -8q14 -12 11 -29q-3 -18 -21 -24l-29 -11q-8 -2 -11 -2q-10 0 -18 6t-11 15l-48 132q-7 21 -7 38l1 13q-20 -20 -31.5 -47t-10.5 -55v-86q-1 -19 12.5 -32.5t33.5 -13.5h782
q19 -1 33 12.5t14 33.5l-1 87q1 43 -23 78.5zM828 241q-9 -9 -9 -22t9 -22t22 -9q13 -1 22 8.5t9 22.5t-9 22t-22 9t-22 -9z" />
    <glyph glyph-name="uniF058" unicode="&#xf058;" horiz-adv-x="1170" 
d="M970 464.5q55 -35.5 81 -94.5q19 -41 19 -89q0 -40 -14.5 -78t-42.5 -69q-32 -35 -74 -53.5t-88 -18.5q-35 0 -70 12q-11 -33 -39.5 -53.5t-63.5 -20.5h-468q-46 0 -78 32t-32 77v782q0 45 32 77t78 32h468q46 0 78 -32t32 -77v-400q30 9 62 9q65 0 120 -35.5zM708.5 74
q13.5 11 16.5 28q-55 39 -77 97q-13 -20 -34 -31t-45 -11q-15 0 -22 2q-29 7 -48.5 29t-22.5 52l-1 11q0 26 14.5 49t38.5 34q19 10 42 10q38 0 65 -27q7 43 30.5 80.5t59.5 63.5v430q0 20 -13.5 33.5t-33.5 13.5h-468q-19 0 -33 -13.5t-14 -33.5v-782q0 -19 13.5 -32.5
t33.5 -13.5h468q17 0 30.5 11zM591 272q-9 9 -22 9t-22 -9t-9 -22t9 -22t22 -9t22 9t9 22t-9 22zM928.5 146q35.5 21 56.5 57t21 78q0 43 -20.5 78.5t-56.5 56.5t-79 21q-42 0 -78 -20.5t-57 -56.5t-21 -79q0 -42 21 -78t57 -57t78 -21q43 0 78.5 21zM935 303.5
q-9 9.5 -22 9.5h-31l-1 62q1 13 -8 22t-23 9q-13 0 -22 -9t-9 -22v-94q0 -13 9 -22t22 -9h63q13 0 22 9t9 22t-9 22.5zM385.5 816.5q27.5 -27.5 27.5 -66.5t-27.5 -66.5t-66.5 -27.5t-66.5 27.5t-27.5 66.5t27.5 66.5t66.5 27.5t66.5 -27.5zM341 728q9 9 9 22t-9 22t-22 9
t-22 -9t-9 -22t9 -22t22 -9t22 9zM502.5 683.5q-27.5 27.5 -27.5 66.5t27.5 66.5t66.5 27.5t66.5 -27.5t27.5 -66.5t-27.5 -66.5t-66.5 -27.5t-66.5 27.5zM547 772q-9 -9 -9 -22t9 -22t22 -9t22 9t9 22t-9 22t-22 9t-22 -9zM385.5 566.5q27.5 -27.5 27.5 -66.5t-27.5 -66.5
t-66.5 -27.5t-66.5 27.5t-27.5 66.5t27.5 66.5t66.5 27.5t66.5 -27.5zM341 478q9 9 9 22t-9 22t-22 9t-22 -9t-9 -22t9 -22t22 -9t22 9zM502.5 433.5q-27.5 27.5 -27.5 66.5t27.5 66.5t66.5 27.5t66.5 -27.5t27.5 -66.5t-27.5 -66.5t-66.5 -27.5t-66.5 27.5zM547 522
q-9 -9 -9 -22t9 -22t22 -9t22 9t9 22t-9 22t-22 9t-22 -9zM385.5 316.5q27.5 -27.5 27.5 -66.5t-27.5 -66.5t-66.5 -27.5t-66.5 27.5t-27.5 66.5t27.5 66.5t66.5 27.5t66.5 -27.5zM341 228q9 9 9 22t-9 22t-22 9t-22 -9t-9 -22t9 -22t22 -9t22 9z" />
    <glyph glyph-name="uniF059" unicode="&#xf059;" horiz-adv-x="1167" 
d="M1067 475q0 -31 -21 -55q-59 -56 -137 -74l-43 -16q-9 -4 -29 -10q-24 -6 -42 -19q-11 -9 -18 -21l-4 -5q-68 -85 -162 -138q-6 -4 -40 -22q-25 -13 -46 -26q-36 -32 -59 -74q-5 -8 -12.5 -12.5t-15.5 -3.5q-9 0 -16.5 4.5t-11.5 12.5q-3 6 -3 14t5 18l25 37
q-25 15 -43 33q-8 10 -8 21q0 13 10 23q8 8 22 8q13 0 21 -8q18 -19 38 -19q11 0 22 4.5t23 11.5t20 11l37 20q82 46 144 122l4 5q12 20 30 33q27 20 62 29q5 2 11 3.5t12 4.5l48 18q63 14 109 56q6 6 6 15l-3 2q-11 -2 -20 -6l-15 -6q-65 -30 -105.5 -43.5t-65.5 -13.5
q-20 0 -34 9q-10 7 -15.5 18t-3.5 23q3 29 26 52l145 155q22 24 30 56q1 5 -1 9q-6 -3 -16 -13q-18 -17 -52 -53q-67 -77 -153 -132q-7 -4 -15 -4q-14 0 -23 10q-9 9 -9 22q0 10 6 17q58 89 101 177l25 48q27 45 37 90l1 6q0 6 -3 10h-1q-6 0 -19 -10q-18 -18 -29 -43
l-30 -55q-42 -84 -98 -168q-7 -15 -21 -23t-31 -8q-8 0 -12 1q-18 4 -28 19.5t-10 38.5q0 11 3 24l51 215q3 9 3 20q0 6 -2 18q-14 -7 -22 -21q-37 -70 -49 -144l-5 -21q-7 -28 -10 -37q-14 -56 -42 -103q74 -63 123 -157q4 -8 4 -14q0 -8 -5 -16t-13 -12q-6 -3 -13 -3
q-20 0 -29 17q-39 78 -106 136q-13 -13 -26 -21q8 -4 13 -12t5 -16q0 -6 -3 -14q-7 -18 -28 -18q-7 0 -13 3q-76 31 -114 101q-5 11 -19 48q-12 36 -22 53t-29 22q-6 2 -8 2q-6 0 -10 -3q-3 -4 -3 -12q7 -21 16 -35q8 -14 11 -21q32 -79 32 -164q1 -21 5 -56q1 -15 5 -38
q9 -37 9 -76q0 -49 -16 -102q-23 -47 -62 -88q-19 -19 -36 -42q-5 -8 -12.5 -12t-16.5 -3q-9 0 -16 5t-11 13q-2 8 -2 13q0 12 7 20q17 24 41 48q30 30 50 70q11 34 11 78q0 37 -8 66q-4 29 -5 40q-3 20 -5 60q0 72 -26 141l-9 17q-18 28 -23 58q-1 4 -1 12q0 16 6 30t17 24
q22 19 52 19q14 0 26 -4q39 -12 58 -40.5t35 -74.5q5 -18 15 -41q13 -22 26 -33q40 16 65.5 58t39.5 93q11 42 14 56q15 88 57 162q14 22 34 36.5t42 14.5q15 0 25 -5q15 -7 27 -23.5t12 -47.5q0 -13 -5 -38l-45 -188q33 50 75 133l30 56q17 35 43 59q23 25 58 25
q18 0 33 -7q17 -11 26.5 -28t9.5 -36q0 -6 -2 -16q-12 -60 -44 -111l-25 -47q-3 -7 -11 -21l3 3l54 55q19 22 49 30q10 2 14 2q22 0 37 -15q13 -12 19.5 -29t4.5 -35q-11 -55 -48 -92l-138 -149q59 17 120 47l17 8q19 10 41 10q14 0 29 -5q14 -7 24 -19t14 -27q1 -5 1 -14z
" />
    <glyph glyph-name="uniF060" unicode="&#xf060;" horiz-adv-x="1101" 
d="M1000 517q-2 -33 -17 -63t-40 -53q-109 -107 -240 -183q-87 -51 -171 -116l-13 -10q-63 -58 -143 -84q-32 -8 -61 -8q-65 0 -116 36.5t-81 105.5q-11 21 -15 43q-3 15 -3 31q0 52 31.5 105.5t77.5 95.5l55 47q58 45 100 94q46 60 78 129q31 66 75 127q23 36 58 66l16 12
q21 14 39 37l6 8q14 21 32 38q29 25 70 25q21 0 42 -8.5t36 -23.5q22 -19 33 -45.5t9 -55.5q23 -5 42.5 -20t30.5 -37q10 -19 8 -39q-2 -12 -4 -18q18 -16 23 -33q7 -15 7 -35q0 -7 -1 -11q7 -7 13 -16q5 -6 14 -24q4 -13 4 -29q0 -15 -5 -33q13 -27 10 -55zM852 669
q7 -16 11 -29q18 15 35 32q2 2 3 2q1 3 1 9q0 5 -2 15q-4 6 -8 9q-12 -14 -40 -38zM928 586v0q6 13 4 27l-2 4q-19 -19 -51 -42q4 -21 5 -29q24 17 44 40zM793 760q17 -19 28 -35q32 26 51 60q-11 20 -35 23h-4q-12 -16 -40 -48zM810 368q22 34 22 76q0 15 -3 30
q-3 70 -25 146q-16 49 -49 89.5t-78 66.5q-15 9 -15 27q0 9 4 16q10 15 27 15q8 0 16 -5q19 -11 38 -26q24 25 42 52q7 14 7 24q0 12 -5.5 23.5t-15.5 18.5q-18 16 -39 16q-17 0 -28 -10q-11 -11 -21 -26l-6 -9q-22 -28 -52 -50q-5 -3 -15 -11q-24 -21 -45 -52
q-40 -56 -68 -114q0 -4 -1 -6q-22 -75 -28 -160q-3 -91 -59 -160q-5 -6 -13.5 -8.5t-16.5 -1.5t-14.5 7t-8.5 14q-2 6 -2 10q0 12 9 21q41 55 43 125l1 11q-45 -52 -108 -102l-52 -44q-38 -34 -63.5 -76t-25.5 -79q0 -6 2 -18q3 -15 11 -31q18 -41 52 -72.5t87 -31.5
q21 0 46 6q67 22 120 72l13 10q92 71 178 121q72 41 139 96zM899 446q28 23 37 61q-22 -17 -44 -29q1 -13 1 -38z" />
    <glyph glyph-name="u1F3E5" unicode="&#xf061;" 
d="M1091 53q9 -9 9 -22t-9 -22t-22 -9h-938q-13 0 -22 9t-9 22t9 22t22 9h125v750q-13 0 -22 9t-9 22t9 22.5t22 9.5v63q-13 0 -22 9t-9 22t9 22t22 9h687q13 0 22.5 -9t9.5 -22t-9.5 -22t-22.5 -9v-63q14 0 23 -9t9 -23q0 -13 -9.5 -22t-22.5 -9v-750h126q13 0 22 -9z
M881 875v63h-563v-63h563zM662 187h-124v-125h124v125zM881 812h-563v-750h157v156q0 13 9 22t22 9h188q13 0 22 -9t9 -22v-156h156v750zM716 647q9 -9 9 -22t-9 -22t-22 -9h-63v-63q0 -13 -9 -22t-22 -9t-22 9t-9 22v63h-63q-13 0 -22 9t-9 22t9 22t22 9h63v62q0 13 9 22
t22 9t22 -9t9 -22v-62h63q13 0 22 -9zM631 406v-62h-62v62h62zM787 406v-62h-62v62h62zM475 406v-62h-62v62h62z" />
    <glyph glyph-name="uniF062" unicode="&#xf062;" horiz-adv-x="981" 
d="M855 611q-26 -34 -67 -44l-1 -317q0 -68 -33 -125.5t-90.5 -91t-125.5 -33.5t-125.5 33.5t-91 91t-33.5 125.5v159q-54 9 -97 41t-67 80t-24 103v211q0 40 23.5 72.5t61.5 45.5q8 12 21 18t27 4q14 -3 24.5 -13t13.5 -24q1 -3 1 -10q0 -12 -5.5 -22.5t-15.5 -16.5
q-11 -7 -26 -7t-27 9q-16 -8 -25.5 -23t-9.5 -33v-211q-1 -43 19 -79.5t55 -59.5t77 -25q31 -1 61 10t53 34q22 22 34.5 51t12.5 61v219q0 18 -9.5 33t-25.5 23q-12 -9 -28 -9q-14 0 -25 7q-12 7 -17.5 21t-3.5 28q3 14 13.5 24t24.5 13q14 2 27.5 -4t21.5 -18
q37 -13 60.5 -45.5t24.5 -72.5l-1 -219q0 -54 -24 -100.5t-67 -77.5t-96 -38v-159q0 -51 25 -94t68 -68t94 -25t94 25t68.5 68t25.5 94v317q-42 10 -68 44.5t-26 76.5q0 7 2 21q8 48 46.5 77.5t87.5 25.5t81.5 -39.5t32.5 -84.5q0 -43 -26 -77zM800.5 643q18.5 18 18.5 44
t-18.5 44.5t-44.5 18.5q-25 0 -43.5 -18t-18.5 -44t18 -44.5t44 -18.5t44.5 18z" />
    <glyph glyph-name="uniF063" unicode="&#xf063;" horiz-adv-x="1219" 
d="M1087 745q13 0 22.5 -9t9.5 -22t-9 -22t-22 -10l-54 -3q-9 -47 -32 -94q25 -15 45 -23q10 -2 16 -10t6 -19q0 -13 -10 -22.5t-23 -9.5q-3 0 -9 2q-22 8 -55 26q-19 -33 -63 -95l46 -38q12 -10 12 -24q0 -13 -9.5 -23t-22.5 -10t-21 8l-45 38q-41 -52 -93 -100l35 -59
q5 -8 5 -16q0 -13 -9.5 -22.5t-22.5 -9.5q-19 0 -27 16l-30 48q-53 -41 -102 -73l22 -57q2 -8 2 -11q0 -10 -5.5 -18t-15.5 -12q-8 -2 -12 -2q-9 0 -17 5.5t-12 14.5l-18 47q-62 -34 -128 -51v-60q0 -10 -10.5 -17t-23.5 -7q-25 0 -30 23v53h-12q-19 0 -29 1q-28 3 -56 12
q-12 -17 -20 -40q-3 -10 -11.5 -16t-19.5 -6q-13 0 -22.5 9t-9.5 22q0 4 2 10q8 30 25 52q-24 18 -43 48q-3 4 -4 7t-2 5l-36 -8q-2 -1 -7 -1h-1q-12 0 -21.5 9.5t-9.5 22.5q0 11 7.5 20t18.5 11l34 7q5 50 36 83q-9 8 -39 29q-13 11 -13 26q0 13 9.5 22t22.5 9q8 0 15 -4
q33 -22 51 -37q-2 -1 40 29l23 16l28 23l-41 33q-12 9 -12 24q0 14 9.5 23.5t22.5 9.5q9 0 20 -7l50 -40q41 37 115 117l-49 38q-11 7 -11 24q0 14 9 23.5t22 9.5q9 0 20 -7l49 -40l35 43q36 47 79 91l-40 37q-11 9 -11 24q0 14 9.5 23.5t22.5 9.5q12 0 24 -10l39 -39
q3 2 5 5q48 42 96 67q-9 35 -11 68q-1 14 8 23.5t22 10.5h2q13 0 22 -8.5t9 -21.5q1 -22 8 -47q21 6 45 6q14 0 21 -1q21 -4 46 -18q22 24 34 35q9 9 22 9t22.5 -9.5t9.5 -22.5q0 -14 -13 -25q-20 -18 -31 -34v-1q30 -56 29 -119l44 3h2zM767 364.5q90 90.5 152 200.5
q48 73 60 160l1 16q0 48 -23 88q-7 14 -19 23.5t-26 12.5q-3 1 -11 1q-29 0 -70.5 -22t-87.5 -62q-71 -66 -122 -134q-11 -13 -22 -28l-13 -16q-112 -138 -243 -238l-23 -18q-50 -36 -73 -60.5t-23 -49.5q0 -17 12 -37q18 -27 46 -42t61 -17q8 -1 24 -1q86 0 200 68
q110 65 200 155.5zM658 598q-15 0 -24 -11q-7 -9 -13.5 -15.5l-11.5 -11.5l-15 -15q-10 -10 -10 -23t9.5 -23t21.5 -10t22 8q32 32 45 50q7 8 7 20q0 14 -10 23q-10 8 -21 8zM916 807q-9 7 -20 7q-5 0 -7 -1q-51 -14 -95 -45t-76 -74q-6 -9 -6 -19q0 -14 9.5 -23.5
t22.5 -9.5q12 0 22 10q53 73 138 99q12 3 19 14.5t4 24.5q-2 10 -11 17z" />
    <glyph glyph-name="uniF064" unicode="&#xf064;" horiz-adv-x="762" 
d="M662 31q0 -13 -9.5 -22t-23.5 -9q-7 0 -14 4t-11 11q-20 31 -35 47h-378q-20 -24 -34 -47q-3 -7 -10 -11t-16 -4q-13 0 -22 9t-9 22q0 10 4 17q21 34 50 65q0 1 3 4q39 41 86 65q7 5 17 5q12 0 21 -8.5t9 -20.5q0 -19 -16 -29q-1 0 -8 -5h228q-30 23 -79 42
q-23 10 -41 17q-102 40 -190 107q-13 12 -27 31v2q-59 79 -57 177q-1 48 13.5 93.5t42.5 83.5l0.5 0.5l0.5 0.5q8 11 27 30q26 23 61 44q7 4 16 4q12 0 21.5 -9t9.5 -21q0 -8 -4 -16t-11 -12q-9 -4 -17 -12h242q-54 38 -139 71l-44 19q-98 41 -162 107l-3 2q-28 32 -50 67
q-4 7 -4 16q0 14 9 23t22 9q17 0 26 -16q12 -24 34 -46h378q18 18 35 46q4 7 11 11.5t14 4.5q14 0 23.5 -9.5t9.5 -22.5q0 -8 -5 -16q-22 -36 -50 -67l-2 -2q-62 -60 -147 -99q64 -31 117 -76q21 -19 29 -30l2 -1q27 -40 42 -85.5t14 -91.5q1 -96 -57 -177q0 -2 -1 -2
q-10 -14 -29 -31q-56 -47 -117 -73q86 -41 147 -100q10 -10 26.5 -31.5t26.5 -37.5q4 -10 4 -17zM379 250q69 26 122 62h-241q53 -36 119 -62zM164 530h433q-6 53 -32 94h-370q-26 -42 -31 -94zM195 375h370q26 43 32 95h-433q4 -51 31 -95zM345 833q26 -10 34 -14
q24 9 36 14q53 23 79 42h-229q35 -22 80 -42z" />
    <glyph glyph-name="uniF065" unicode="&#xf065;" horiz-adv-x="950" 
d="M359 728q9 -9 22 -9h94q13 0 22 9t9 22t-9 22t-22 9h-94q-13 0 -22 -9t-9 -22t9 -22zM841 384q9 9 9 22t-9 22.5t-22 9.5l-90 -1q4 56 25 115q1 1 1 3l1 4v4v3l-1 4q0 3 -1 4q-20 52 -25 114h90q13 -1 22 8.5t9 22.5t-9 22t-22 9h-90q4 57 25 114l1 4l1 4v4v3l-1 5l-1 2
q-17 46 -22 87q-2 13 -12 20.5t-23 5.5q-13 -1 -21 -11.5t-6 -23.5q5 -31 12 -58h-414q7 27 12 58q2 13 -6 23.5t-21 12.5h-4q-10 0 -19 -6q-10 -9 -12 -21q-5 -41 -22 -87l-1 -2l-1 -5v-3v-4q0 -3 1 -4l1 -4q21 -57 25 -114h-90q-13 0 -22 -9t-9 -22t9 -22t22 -9h90
q-5 -62 -25 -114q-1 -1 -1 -3l-1 -5v-3v-4l1 -4q0 -2 1 -3q21 -59 25 -114l-90 -1q-13 1 -22 -8t-9 -23q0 -13 9 -22t22 -9h90q-5 -60 -25 -114q-1 -1 -1 -3l-1 -4v-4v-4q0 -2 1 -3q0 -2 1 -3q19 -55 24 -115h-89q-13 0 -22 -9t-9 -22t9 -22t22 -9h89q0 -9 -2 -27
q-2 -13 6 -23.5t21 -11.5q12 -2 22.5 5.5t12.5 20.5q4 27 4 62q1 2 1 5l-1 5q0 60 -17 120h415q-14 -56 -16 -120l-1 -5q0 -3 1 -5q0 -35 4 -62q1 -12 10 -19.5t21 -7.5h5q13 2 20.5 12.5t5.5 23.5q-2 18 -2 27h89q13 -1 22 8.5t9 22.5t-9 22t-22 9h-89q5 59 24 114q1 1 1 3
l1 4v4v4l-1 4q0 2 -1 3q-20 54 -25 114h90q13 0 22 9zM665 720v-1v-1q0 -62 17 -124h-414q17 62 17 124v1v1q-2 67 -17 124h414q-15 -57 -17 -124zM285 405v1v2q-2 67 -17 123h414q-15 -56 -17 -123v-2v-1q0 -61 17 -124h-414q17 63 17 124zM497 460q9 -9 9 -22t-9 -22.5
t-22 -9.5h-94q-13 0 -22 9t-9 22t9 22.5t22 9.5h94q13 0 22 -9zM497 147q9 -9 9 -22t-9 -22t-22 -9h-94q-13 0 -22 9t-9 22t9 22t22 9h94q13 0 22 -9z" />
    <glyph glyph-name="uniF066" unicode="&#xf066;" 
d="M1091 710q9 -9 9 -22v-563q0 -13 -9 -22t-22 -9t-22 9t-9 22v156h-875l-1 -156q1 -13 -8 -22t-23 -9q-13 0 -22 9t-9 22v750q0 13 9 22t22 9t22.5 -9t9.5 -22v-216l61 87q9 14 26 14q10 0 18 -6l226 -160h544v93q-1 13 8 22.5t23 9.5q13 0 22 -9zM663 531v-62h375v62
h-375zM600 531h-62v-62h62v62zM454 469h21v64q-6 2 -9 4l-209 148l-36 -51zM163 469h183l-183 130v-130zM1038 406h-875v-62h875v62z" />
    <glyph glyph-name="uniF067" unicode="&#xf067;" 
d="M1100 678q0 -31 -16 -61q-22 -40 -64 -63.5t-82 -34.5q-88 -24 -163.5 -75.5t-131.5 -124.5q-44 -55 -67 -123q-3 -7 -7 -21q-16 -71 -65 -120q-19 -18 -43 -27.5t-51 -10.5q-16 0 -29 4q-34 10 -61 34.5t-42 57.5l-18 34q-13 29 -32 56q-43 -2 -81 20q-23 16 -35 40
t-12 51t11 49q16 35 44.5 50t71.5 24l31 8q84 24 159 73q46 35 83 72q63 60 101.5 114.5t56.5 121.5q14 55 58 102.5t97 53.5l13 1q28 0 56.5 -16t52.5 -56q20 -40 23 -84q113 -35 135 -109q7 -18 7 -40zM1038 677q0 9 -4 23q-10 21 -27.5 36t-39.5 21q2 -12 7 -21
q3 -7 3 -14q0 -10 -6 -18q-4 -7 -12.5 -11t-16.5 -2q-8 1 -15 6t-10 13q-17 42 -19 91q0 42 -18 79q-25 44 -59 40q-31 -4 -61.5 -37t-41.5 -73q-21 -79 -65 -140.5t-110 -124.5q-42 -42 -90 -78q-83 -56 -176 -81q-12 -4 -36 -10q-35 -8 -51 -15.5t-23 -23.5q-5 -12 -5 -22
q0 -11 5 -21.5t14 -17.5q26 -12 54 -11q18 0 27 -1q68 -8 120 -49q14 -11 12 -30q-3 -18 -20 -24q-8 -2 -11 -2q-13 0 -20 7q-16 13 -32 20l6 -12l15 -31q19 -45 64 -62q4 -1 13 -1q32 0 54 21q35 40 46 93q4 8 7 22q29 81 78 142q61 81 145.5 138t182.5 84q32 6 60.5 23.5
t47.5 43.5q8 14 8 30z" />
    <glyph glyph-name="uniF068" unicode="&#xf068;" 
d="M778.5 9q9.5 9 9.5 22v282h281q13 -1 22 8.5t9 22.5v312q0 13 -9 22.5t-22 9.5h-281v281q0 13 -9.5 22t-22.5 9h-312q-13 0 -22 -9t-9 -22v-281h-282q-13 0 -22 -9.5t-9 -22.5v-312q0 -13 9 -22t22 -9h282v-282q-1 -13 8.5 -22t22.5 -9h312q13 0 22.5 9zM466 366
q-9 9 -22 9h-281v250h281q13 0 22 9t9 22v282h250v-282q0 -13 9 -22t22 -9h282v-250h-282q-13 0 -22 -9t-9 -22v-281h-250v281q0 13 -9 22z" />
    <glyph glyph-name="uniF069" unicode="&#xf069;" horiz-adv-x="1199" 
d="M747 9q9 9 9 22v198l172 -99q7 -4 16 -4q5 0 8 1q11 3 18 15l125 216q4 7 4 16q0 18 -15 27l-171 99l171 99q15 9 15 27q0 9 -4 16l-125 216q-4 7 -11.5 11.5t-15.5 4.5t-15 -4l-172 -99v198q0 13 -9 22t-22 9h-250q-13 0 -22 -9t-9 -22v-198l-172 99q-7 4 -15 4
t-16 -4.5t-12 -11.5l-125 -216q-4 -7 -4 -15t4.5 -16t11.5 -12l172 -99l-172 -99q-15 -9 -15 -27q0 -9 4 -16l125 -216q7 -12 18 -15q3 -1 8 -1q9 0 16 4l172 99v-198q0 -13 9 -22t22 -9h250q13 0 22 9zM491 311q-7 4 -16 4t-16 -4l-191 -111l-94 163l192 110q15 10 15 27
t-15 27l-192 111l94 162l191 -111q10 -4 16 -4t16 4q15 10 15 28v221h188v-221q0 -18 15 -28q10 -4 16 -4t16 4l191 111l94 -163l-192 -110q-15 -10 -15 -27t15 -27l192 -111l-94 -162l-191 111q-7 4 -16 4t-16 -4q-15 -10 -15 -27v-221h-188v220q0 18 -15 28z" />
    <glyph glyph-name="uniF070" unicode="&#xf070;" horiz-adv-x="856" 
d="M733 758q23 -23 23 -55v-328q0 -40 -16.5 -76.5t-46.5 -62.5v-80q0 -25 -18 -43.5t-44 -18.5h-31l-1 -63q1 -13 -8 -22t-23 -9q-13 0 -22 9t-9 22v63h-31q-26 0 -44.5 18t-18.5 44v80q-29 26 -45.5 62.5t-16.5 76.5v328q0 32 23 55t55 23h78v67q-33 9 -57 33t-32 57h-239
q-19 0 -33 -13.5t-14 -33.5v-860q0 -13 -9 -22t-22 -9t-22 9t-9 22v860q-1 45 31 77t78 32h265q13 0 22.5 -9t9.5 -22q0 -17 8.5 -32t24.5 -23q2 11 10.5 17.5t18.5 6.5q11 0 19.5 -7t10.5 -17q15 8 24 23t9 32q0 13 9 22t22 9t22 -9t9 -22q0 -43 -26 -77t-67 -44v-67h78
q32 0 55 -23zM693 469h-250v-94q0 -47 31 -82.5t78 -41.5q5 -1 16 -1q43 0 76.5 26t44.5 68h-58q-13 0 -22 9t-9 22q-1 13 8.5 22t22.5 9h62v63zM447.5 714.5q-4.5 -4.5 -4.5 -11.5v-172h250v63h-62q-13 0 -22 9t-9 22q-1 13 8.5 22t22.5 9h62v47q0 7 -4.5 11.5t-10.5 4.5
h-219q-7 0 -11.5 -4.5zM568 188q-33 0 -62 10v-42h125v42q-29 -10 -63 -10z" />
    <glyph glyph-name="uniF071" unicode="&#xf071;" 
d="M1043.5 620.5q31.5 -20.5 46.5 -55.5q10 -23 10 -49q0 -50 -34 -87l-162 -169q-10 -10 -23 -10q-12 0 -22 10l-140 146h-93l-58 -349q-1 -11 -10 -18.5t-20 -7.5h-1q-12 0 -20.5 8t-10.5 20l-67 633l-58 -384q-1 -10 -9 -17.5t-19 -9.5q-11 -1 -19.5 4.5t-12.5 15.5
l-69 183l-30 -60q-4 -8 -11.5 -13t-16.5 -5h-63q-13 0 -22 9t-9 22t9 22.5t22 9.5h43l54 107q9 18 30 18q9 -1 16.5 -6.5t11.5 -13.5l51 -138l76 506q2 11 10.5 19t20.5 8v0q12 -1 20.5 -9t10.5 -19l69 -648l25 150q2 11 11 18.5t20 7.5h72q-9 23 -9 47q0 32 15.5 60.5
t43.5 45.5q29 19 66 19q26 0 50.5 -11t42.5 -32q18 20 42.5 31.5t51.5 11.5q37 0 68.5 -20.5zM1038 516q0 17 -9 32q-9 14 -23.5 22t-31.5 8q-6 0 -16 -2q-20 -6 -32.5 -22.5t-13.5 -37.5q1 -13 -8 -22.5t-23 -9.5q-13 0 -22 9.5t-9 22.5q0 21 -13 37.5t-33 22.5
q-10 2 -16 2q-17 0 -31.5 -8t-22.5 -22q-9 -15 -9 -32q0 -24 17 -43l139 -146l139 146q18 18 18 43z" />
    <glyph glyph-name="uniF072" unicode="&#xf072;" horiz-adv-x="1158" 
d="M879 261l-19 -15q49 -8 111 -8h3q26 0 44.5 -18.5t18.5 -44.5q0 -21 -12.5 -38t-32.5 -22q-140 -41 -283 -44q-8 -1 -24 -1q-41 0 -75 7v-46q0 -13 -9 -22t-22 -9t-22 9t-9 22v46q-35 -7 -75 -7q-17 0 -24 1q-143 3 -283 44q-20 5 -32.5 22t-12.5 38q0 26 18.5 44.5
t43.5 18.5h3q63 0 112 8l-19 15q-32 29 -61 68q-23 30 -52 71q-28 40 -53 71q-13 16 -13 38q0 26 18.5 44.5t44.5 18.5q8 0 17 -3q25 -6 82 -17q64 -7 127 -29l11 -4v27q10 111 52 218l35 97l33 97q8 19 24 30.5t35 11.5q20 0 36 -11.5t22 -30.5l28 -79l40 -115
q43 -105 53 -218v-27l10 4q65 22 127 29q52 9 82 17q10 3 19 3q25 0 43.5 -19t18.5 -44q0 -24 -14 -38q-18 -23 -52 -71l-19 -26l-33 -45q-26 -34 -61 -68zM837 308q30 27 54 60q9 12 46 63q44 60 59 78q-23 -7 -51 -11.5t-36 -5.5q-31 -5 -62.5 -11.5t-55.5 -15.5
q-40 -14 -70 -43.5t-47 -69.5q-4 -8 -11.5 -12.5t-17.5 -4.5q-7 0 -13 3q-8 4 -12.5 11.5t-4.5 16.5q0 7 3 14q30 63 74 113q5 24 3 50q-9 101 -49 200l-67 194l-68 -194q-37 -96 -48 -200q-1 -22 4 -49q43 -52 74 -114q3 -6 3 -13q0 -10 -5 -17.5t-13 -11.5q-7 -3 -14 -3
q-9 0 -16.5 5t-11.5 13q-19 46 -64 88q-24 16 -53 24q-33 13 -72 19.5l-45 7.5q-8 1 -36 5.5t-51 11.5q18 -22 52 -70q27 -37 52 -70q18 -26 53 -61q32 -26 70 -39.5t78 -13.5q12 0 21 -9.5t9 -22.5q0 -12 -9 -21t-22 -9h-1h-2l-28 1q-35 0 -74.5 -4t-50.5 -5
q-82 -10 -125 -10h-3q132 -38 268 -42h22q38 -1 75 9v24q0 13 9 21.5t22 8.5t22 -8.5t9 -21.5v-24q36 -11 76 -9h21q142 5 267 42h-3q-72 0 -144 12q-41 7 -87 7q-16 0 -46 -2h-2h-1q-12 0 -21 9t-9 22q0 14 8.5 23t21.5 9q39 2 75 12q40 12 71 41z" />
    <glyph glyph-name="uniF073" unicode="&#xf073;" horiz-adv-x="1133" 
d="M1033 710q0 -10 -5.5 -18t-15.5 -11q-52 -18 -91 -40q1 -25 -13 -51q-129 -218 -195 -462q-11 -40 -25 -68t-42 -44t-61 -16q-44 0 -93 22t-112 60q-6 4 -18 10q-3 2 -24 14l-22 11q-83 40 -147 90q-30 25 -49.5 56.5t-19.5 65.5q0 29 16 55q28 47 98 47q32 0 82 -10
q10 -1 20 -3t19 -3q18 -2 26 -2q18 0 41 5q28 8 41.5 41t25.5 88l11 45q31 111 80 204q13 24 36.5 36t51.5 10q26 58 80 95q50 33 115 61q8 2 13 2q13 0 22 -9t9 -22q0 -9 -5 -17t-13 -12q-57 -21 -104 -54q-37 -26 -57 -63q104 -42 187 -119l4 -5q46 25 93 41q6 2 10 2
q10 0 18 -6t11 -16q2 -6 2 -10zM860 638q0 12 -9 21q-89 83 -201 120q-6 2 -10 2q-8 0 -15 -4t-11 -11q-44 -83 -73 -191q-4 -13 -10 -41q-11 -48 -21.5 -78.5t-32 -58.5t-56.5 -39q-28 -7 -59 -7q-11 0 -31 2q-11 1 -46 7q-38 7 -69 8l-8 1q-23 0 -39 -18q-5 -13 -5 -24
q0 -29 20 -47l24 30q9 10 24 10q12 0 21 -9t9 -22q0 -11 -8 -21q-6 -7 -23 -30q40 -28 83 -50q17 20 53 58q10 10 23 10t22 -9t9 -22t-9 -22l-40 -44q4 -3 9 -5.5t11 -6.5l20 -11q30 -19 43 -25l16 17q10 12 33 35q10 8 22 8q14 0 23 -9t9 -22q0 -11 -9 -22q-24 -24 -35 -37
q43 -19 70 -19q17 0 31 8t21.5 25.5t16.5 48.5v0q-47 96 -112 187q-6 8 -6 18q0 13 9 22.5t22 9.5q14 0 24 -13q48 -64 88 -138q21 63 39 108q-47 81 -100 154q-6 8 -6 17q0 13 9.5 22t22.5 9q16 0 25 -12q28 -38 78 -118q18 40 44 93q-41 88 -97 156q-7 11 -7 20
q0 13 9.5 22t22.5 9q15 0 24 -12q49 -61 84 -127l29 51q5 8 5 16z" />
    <glyph glyph-name="uniF074" unicode="&#xf074;" horiz-adv-x="1138" 
d="M1006 968q32 -32 32 -77v-172q0 -13 -9 -22t-22 -9h-66l-59 -660q-1 -12 -10.5 -20t-21.5 -8h-562q-12 0 -21 8t-10 20l-60 660h-65q-13 -1 -22.5 8t-9.5 23v172q0 45 32 77t78 32h718q46 0 78 -32zM260 688l56 -625h506l57 625h-619zM961.5 924.5q-13.5 13.5 -33.5 13.5
h-718q-19 0 -33 -13.5t-14 -33.5v-141h62v94q0 13 9 22t22 9t22.5 -9t9.5 -22v-94h62v94q0 13 9 22t22 9t22.5 -9t9.5 -22v-94h62v94q0 13 9 22t22 9t22.5 -9t9.5 -22v-94h62v94q0 13 9 22t22 9t22.5 -9t9.5 -22v-94h62v94q0 13 9 22t22 9t22.5 -9t9.5 -22v-94h62v94
q0 13 9 22t22 9t22.5 -9t9.5 -22v-94h62v141q0 20 -13.5 33.5zM709 329q0 -31 -12.5 -59t-36.5 -49q-39 -33 -91 -33q-48 0 -87 30q-26 20 -40 49t-14 61q0 33 16 64l93 183q9 17 27 17q8 0 16 -4.5t12 -11.5l100 -179q17 -31 17 -68zM608 260q18 10 29 28q11 19 11 39
t-11 39l-71 128l-67 -131q-8 -16 -8 -35q0 -32 23 -55t55 -23q21 0 39 10z" />
    <glyph glyph-name="uniF075" unicode="&#xf075;" horiz-adv-x="1138" 
d="M1006 968q32 -32 32 -77v-172q0 -13 -9 -22t-22 -9h-66l-59 -660q-1 -12 -10.5 -20t-21.5 -8h-562q-12 0 -21 8t-10 20l-60 660h-65q-13 -1 -22.5 8t-9.5 23v172q0 45 32 77t78 32h718q46 0 78 -32zM260 688l56 -625h506l57 625h-619zM961.5 924.5q-13.5 13.5 -33.5 13.5
h-718q-19 0 -33 -13.5t-14 -33.5v-141h62v94q0 13 9 22t22 9t22.5 -9t9.5 -22v-94h62v94q0 13 9 22t22 9t22.5 -9t9.5 -22v-94h62v94q0 13 9 22t22 9t22.5 -9t9.5 -22v-94h62v94q0 13 9 22t22 9t22.5 -9t9.5 -22v-94h62v94q0 13 9 22t22 9t22.5 -9t9.5 -22v-94h62v94
q0 13 9 22t22 9t22.5 -9t9.5 -22v-94h62v141q0 20 -13.5 33.5zM736 364q16 -31 16 -65q0 -13 -1 -19q-9 -39 -38.5 -66t-68.5 -31q-2 -1 -5 -1h-142h-10q-20 -2 -39.5 5t-34.5 21q-15 15 -22.5 34.5t-5.5 39.5q3 35 31 63q-7 12 -9 27q-1 3 -1 10q0 22 15 42q21 24 48 42
l19 15q17 15 25.5 25t9.5 19q1 4 1 11t-1 10q-2 9 2 18t12 14t17 5q10 0 18 -6l48 -35q42 -26 66 -73q6 -18 6 -37q0 -12 -1 -18q29 -19 45 -50zM469 380q1 -8 8 -15q20 -10 38 -10q8 0 12 1q44 2 80 28q22 18 22 47q0 6 -2 16q-15 27 -44 45l-4 3q-18 -37 -50 -61l-23 -18
q-21 -14 -36 -31v0v0q-1 -2 -1 -5zM684.5 328q-6.5 16 -19.5 27q-10 -12 -16 -17q-52 -42 -118 -44l-15 -1q-29 0 -53 10q-12 -8 -16 -26q0 -16 11 -25q5 -5 13 -6.5t25 -0.5h140q20 2 35 16t19 34q1 17 -5.5 33z" />
    <glyph glyph-name="uniF076" unicode="&#xf076;" horiz-adv-x="950" 
d="M850 750v-719q0 -13 -9 -22t-22 -9h-688q-13 0 -22 9t-9 22v938q0 13 9 22t22 9h469q6 0 12 -3q5 -1 10 -6l219 -219q5 -5 6 -10q3 -6 3 -12zM743 781l-112 112v-112h112zM787 719h-187q-13 0 -22 9t-9 22v187h-407v-875h625v657zM498 193l148 156q31 34 31 80
q0 48 -34 82.5t-83 34.5q-24 0 -46.5 -9.5t-38.5 -27.5q-16 18 -38.5 27.5t-46.5 9.5q-49 0 -83.5 -34.5t-34.5 -82.5q0 -45 32 -80l148 -156q9 -9 23 -9t23 9zM428 468q16 -16 16 -38q0 -13 9 -22.5t22 -9.5t22 9.5t9 22.5v0q0 22 16 38t39 16t39 -16t16 -38t-16 -38
l-125 -132l-126 132q-15 17 -15 38q0 22 16 38t39 16t39 -16zM497 790q9 9 9 22t-9 22.5t-22 9.5h-188q-13 0 -22 -9.5t-9 -22.5t9 -22t22 -9h188q13 0 22 9zM497 665q9 9 9 22t-9 22.5t-22 9.5h-188q-13 0 -22 -9.5t-9 -22.5t9 -22t22 -9h188q13 0 22 9z" />
    <glyph glyph-name="uniF077" unicode="&#xf077;" horiz-adv-x="1209" 
d="M212 7q29 22 49 41q29 31 70 51q34 11 77 11q39 0 68 -8q25 -4 40 -5q20 -4 61 -6q76 0 141 -26l18 -9q29 -19 59 -23q4 -1 12 -1q33 0 54 24q19 24 19 53q0 14 -4 25q-12 40 -40.5 58.5t-74.5 34.5q-26 9 -42 16q-20 7 -34 24q29 73 152 108q14 4 56 13q95 18 165 58
q22 13 36.5 33.5t14.5 42.5q0 13 -6 25q-20 40 -72 40q-15 0 -38 -5l-189 -45q44 28 134 76q26 12 56 29q34 17 60 43t26 59q0 16 -8 34q-10 16 -27 25.5t-37 9.5q-5 0 -17 -2q-60 -12 -111 -44l-48 -26l-21 -10l4 3l55 54q21 21 31 49q1 4 1 13q0 23 -15 39
q-12 13 -29.5 19.5t-35.5 4.5q-55 -11 -93 -48l-149 -139q19 65 48 120l7 18q10 19 10 42q0 14 -5 29q-6 14 -18.5 24t-27.5 13q-10 2 -16 2q-30 0 -54 -21q-57 -58 -75 -138q-10 -30 -16 -43q-5 -13 -10 -29q-5 -25 -19 -43q-13 -13 -20 -18l-6 -4q-88 -72 -139 -164
l-12 -21q-6 -12 -10 -18q-15 -32 -27 -47q-32 -39 -73 -59q-17 -11 -17 -28q0 -13 9.5 -22.5t21.5 -9.5q9 0 19 6q56 30 92 78q16 21 31 53l20 36q46 84 123 145l5 4q22 17 33 31q19 25 29 62q3 11 9 24q2 5 17 47q15 61 56 111q7 5 15 5q2 0 2 -2v-2q0 -6 -5 -19
q-2 -7 -7 -15q-30 -64 -44 -105t-14 -66q0 -20 10 -35q7 -10 18.5 -16t23.5 -4q30 3 52 27l156 145q25 23 57 32q4 0 9 -3q-4 -6 -14 -16q-28 -30 -53 -52q-77 -68 -133 -154q-4 -8 -4 -15q0 -13 9.5 -22.5t22.5 -9.5q9 0 18 6q89 58 177 101l49 25q39 25 90 38l8 1
q3 0 9 -2q0 -10 -10 -21q-18 -18 -43 -29q-11 -7 -19.5 -11t-13.5 -7l-22 -12q-75 -37 -170 -99q-14 -7 -22.5 -21t-8.5 -30q0 -9 1 -13q4 -19 19 -29t38 -10q12 0 25 3l217 51q9 3 20 3q5 0 17 -2q-7 -15 -21 -21q-68 -38 -144 -50q-8 -2 -59 -15q-75 -20 -124.5 -57
t-69.5 -87q-5 -12 -5 -24q0 -47 69 -81q32 -14 49 -19q36 -12 53 -22.5t23 -29.5q1 -2 1 -7q0 -7 -2 -10q-8 -4 -13 -2q-21 5 -35 15l-22 12q-81 31 -164 31l-57 5q-9 1 -39 5q-38 9 -75 9q-49 0 -103 -16q-49 -23 -89 -63q-12 -12 -42 -36q-14 -10 -14 -26q0 -12 10 -21.5
t23 -9.5v0q10 0 17 6zM468.5 415.5q9.5 -9.5 9.5 -22.5t-9.5 -22.5t-21.5 -9.5q-13 0 -22.5 9.5t-9.5 22.5t9.5 22.5t22.5 9.5q12 0 21.5 -9.5zM626 415.5q9 -9.5 9 -22.5t-9 -22.5t-22 -9.5t-22 9.5t-9 22.5t9 22.5t22 9.5t22 -9.5zM594.5 604.5q9.5 -9.5 9.5 -22.5
t-9.5 -22.5t-21.5 -9.5q-13 0 -23 9.5t-10 22.5t10 22.5t23 9.5q12 0 21.5 -9.5zM406 509.5q9 -9.5 9 -22.5t-9 -22t-22 -9t-22.5 9t-9.5 22q0 14 9.5 23t22.5 9t22 -9.5zM531 510q9 -9 9 -23q0 -13 -9 -22t-22 -9q-12 0 -21.5 9t-9.5 22t9.5 22.5t21.5 9.5q13 0 22 -9z
M279.5 321q9.5 -9 9.5 -22t-9.5 -22.5t-21.5 -9.5q-13 0 -22.5 9.5t-9.5 22.5t9.5 22t22.5 9q12 0 21.5 -9zM531 321q9 -9 9 -22q0 -14 -9 -23t-22 -9q-12 0 -21.5 9.5t-9.5 22.5t9.5 22t21.5 9q13 0 22 -9z" />
    <glyph glyph-name="uniF078" unicode="&#xf078;" horiz-adv-x="1201" 
d="M935 478q9 9 9 22v125h126q13 0 22 9.5t9 22.5v156q0 13 -9 22t-22 9h-126v125q0 13 -9 22t-22 9h-156q-13 0 -22 -9t-9 -22v-125h-125q-13 0 -22.5 -9t-9.5 -22v-156q0 -13 9.5 -22.5t22.5 -9.5h125v-125q0 -13 9 -22t22 -9h156q13 0 22 9zM632 688v94h156v156h94v-156
h156v-94h-156v-156h-94v156h-156zM788 5l89 54q13 7 15 24l20 182q1 10 -4 19t-14 13l-195 96q-6 3 -14 3q-12 0 -20 -7l-71 -60q-53 29 -96 69q-42 45 -68 96l59 71q7 7 7 20q0 8 -3 14l-96 195q-5 9 -13 13.5t-18 3.5l-183 -19q-14 -1 -24 -15l-54 -89q-5 -8 -5 -17
q0 -4 2 -10q91 -224 263 -396q170 -172 397 -263q6 -2 10 -2q8 0 16 5zM351 747l78 -158l-60 -71q-8 -10 -8 -21q0 -7 3 -13q35 -74 90 -130q59 -56 130 -90q6 -3 14 -3q13 0 20 7l72 60l157 -78l-15 -146l-63 -38q-201 85 -360 243q-154 154 -243 359l39 63z" />
    <glyph glyph-name="uniF079" unicode="&#xf079;" horiz-adv-x="1043" 
d="M465 991q9 -9 9 -22q1 -13 -8 -22t-23 -9v-500q0 -17 -12 -25l-113 -85v-266q13 1 22 -8t9 -23q1 -13 -8 -22t-23 -9h-62q-13 0 -22 9t-9 22q-1 13 8 22.5t23 9.5v265l-113 84q-12 9 -12 26v500q-13 -1 -22 8t-9 23q-1 13 8.5 22t22.5 9h312q13 0 22 -9zM381 656h-188
v-203l94 -70l94 70v203zM193 938v-219h188v219h-188zM934 991q9 -9 9 -22t-9 -22t-22 -9v-500q0 -8 -3.5 -14.5t-9.5 -10.5l-112 -85v-266q13 1 22 -8t9 -23q0 -13 -9 -22t-22 -9h-62q-13 0 -22.5 9t-9.5 22q0 14 9.5 23t22.5 9v265l-113 84q-12 9 -12 26v500
q-13 -1 -22.5 8t-9.5 23q0 13 9.5 22t22.5 9h312q13 0 22 -9zM850 656h-188v-203l94 -70l94 70v203zM662 938v-219h188v219h-188z" />
    <glyph glyph-name="uniF080" unicode="&#xf080;" horiz-adv-x="1201" 
d="M1092 210q9 -9 9 -22t-9 -22.5t-22 -9.5h-125v-47q0 -45 -32 -77t-78 -32q-45 0 -77 32t-32 77q0 46 32 78t77 32q25 0 47 -11v136h-158q2 -22 2 -33q0 -74 -33.5 -139.5t-93 -110t-133.5 -57.5q-30 -5 -53 -5q-70 0 -133.5 30.5t-108.5 85t-62 124.5q-9 36 -9 73
q0 67 27.5 127.5t77.5 105.5t115 66v280q0 20 -13.5 33.5t-33.5 13.5h-78q-13 -1 -22 8t-9 23q-1 13 8.5 22t22.5 9h78q45 0 77 -32t32 -77v-78l438 -1q34 0 62.5 -16.5t45.5 -45t17 -62.5v-282q13 0 22 -9t9 -22t-9 -22t-22 -9v-125h125q13 0 22 -9zM538.5 96
q57.5 34 91 91t33.5 125t-33 125.5t-90.5 91t-125.5 33.5t-125.5 -33t-91 -90.5t-33.5 -125.5t33 -125.5t90.5 -91.5t125.5 -34t125.5 34zM882 687q0 26 -18 44.5t-44 18.5h-438v-127q22 2 32 2q67 0 127.5 -27t105 -77t65.5 -115h170v281zM868 75.5q14 13.5 14 33.5
t-13.5 33.5t-33.5 13.5q-19 0 -32.5 -13.5t-13.5 -33.5q-1 -19 12.5 -32.5t33.5 -13.5q19 -1 33 12.5zM556 422q0 5 -1 8q-1 8 -7.5 14.5t-14.5 8.5q-3 1 -8 1q-13 0 -22 -9l-89 -88l-88 89q-9 9 -22 9t-22 -9q-10 -9 -10 -22t9 -22l88 -89l-89 -88q-9 -9 -9 -22t9 -22
q9 -10 22 -10t22 9l89 88l88 -89q12 -12 30 -9q18 4 23 23q1 3 1 8q0 13 -9 22l-88 89l89 88q9 9 9 22z" />
    <glyph glyph-name="u1F480" unicode="&#xf081;" horiz-adv-x="1194" 
d="M1094 182q0 -83 -16 -157q-3 -11 -11.5 -18t-19.5 -7h-5q-31 5 -93 17q-25 5 -91 16q-54 6 -103 27q-55 26 -90 77.5t-65 127.5q-74 -34 -158 -34q-75 0 -143 28t-115 82q-41 46 -62.5 106t-21.5 126q0 109 55 200q55 87 141 143.5t187 71.5q51 9 101 9q96 0 187 -31
t166 -91q43 -37 78 -87t35 -113q0 -16 -3 -31q-8 -32 -14 -47q-10 -25 -12 -53q1 -20 13 -36.5t31 -23.5q10 -3 16 -11.5t6 -18.5q0 -7 -3 -13l-32 -66l-3 -8q0 -3 4 -7q9 -9 21 -15q9 -5 13 -14t2 -19q-1 -6 -1 -18q0 -9 2 -29q2 -14 2 -22q2 -20 2 -61zM708 399l14 1
q44 0 83 -25q19 -9 23 -11q13 -5 25 -5q11 0 20 3q5 4 5 6q3 11 11.5 17.5t19.5 6.5q13 0 22 -9t9 -22l-1 -8q-4 -15 -14 -27t-24 -19q-21 -10 -47 -10q-15 0 -23 2q2 -29 22 -49l1 2q4 8 11.5 13t16.5 5q13 0 22 -9t9 -22q0 -3 -2 -11l24 -4q1 10 8 18t17 10q2 1 8 1
q13 0 22 -9.5t9 -22.5v-4l23 -2h9q0 15 -1 23q0 8 -2 20q-3 25 -2 44q-7 4 -19 16q-11 11 -16.5 26.5t-3.5 31.5q3 14 9 26l19 38q-26 18 -40.5 45t-15.5 58q2 40 15 74q8 20 11 38q2 14 2 21q0 47 -30.5 87.5t-59.5 62.5q-68 53 -149 81t-166 28q-42 0 -88 -8
q-88 -13 -163 -62t-122 -124q-46 -76 -46 -168q0 -54 17 -104t50 -87q38 -43 94.5 -65.5t118.5 -22.5q51 0 99.5 15.5t88.5 46.5l8 6q29 26 69 37zM1022 67q8 42 9 85l-13 1l-27 2q-1 -11 -10 -18.5t-20 -8.5q-13 0 -22 9t-9 22v3q-17 2 -41 8q-9 -15 -26 -15q-6 0 -8 1
q-11 3 -17.5 12.5t-5.5 21.5q-34 18 -47.5 48.5t-19.5 74.5l-1 13q-19 12 -45 12q-23 -7 -41 -25l-9 -6q-6 -7 -14 -11q27 -70 55.5 -115t71.5 -65q40 -16 86 -21q25 -4 92 -17q45 -9 62 -11zM840.5 472.5q-8.5 6.5 -10.5 16.5q-7 27 -7 58q0 57 26 109q4 8 11.5 12.5
t16.5 4.5q13 0 22 -9t9 -22q0 -9 -4 -14q-19 -37 -19 -81q0 -20 5 -43q1 -2 1 -7q0 -13 -9 -22t-22 -9v0q-11 0 -19.5 6.5z" />
    <glyph glyph-name="uniF082" unicode="&#xf082;" horiz-adv-x="1169" 
d="M657 835q-9 -9 -9 -22q0 -14 9 -23t22 -9t22 9.5t9 22.5t-9 22t-22 9t-22 -9zM469 835q-9 -9 -9 -22t9 -22.5t22 -9.5q14 0 23 9.5t9 22.5t-9.5 22t-22.5 9t-22 -9zM491 687q0 9 6 18q9 14 25 14q9 0 18 -6q20 -15 45 -15q26 0 45 16q8 5 17 5q18 0 27 -14q5 -8 5 -17
q0 -18 -14 -27q-37 -25 -80 -25q-45 0 -80 26v0q-14 9 -14 25zM1069 175q0 -18 -14 -27q-8 -5 -16 -5q-18 0 -27 14l-110 170q-4 8 -4 13l-27 238q-1 7 -6.5 11.5t-12.5 4.5q-7 -1 -12 -6t-5 -12v-189q0 -10 -6 -18t-16 -11q-3 -1 -9 -1q-16 0 -26 13l-21 29q-3 5 -8 5
q-6 1 -10 -3q-4 -3 -4 -9q0 -5 3 -8l107 -125l4 -4l101 -166q5 -8 5 -17q0 -5 -4 -15q-4 -7 -11.5 -11.5t-15.5 -4.5h-2q-16 0 -26 15l-72 120q-25 -79 -91 -127.5t-148 -48.5t-148 48.5t-91 127.5l-72 -120q-10 -15 -27 -15q-9 0 -16 5q-15 9 -15 27q0 9 4 16l101 166l3 4
l108 125q3 3 3 8q0 6 -4 9q-4 4 -10 3q-5 0 -8 -5l-21 -29q-9 -13 -25 -13q-7 0 -10 1q-10 3 -16 11t-6 18v189q0 7 -5 12t-12 6q-8 0 -13 -5t-6 -12l-27 -237q0 -5 -4 -13l-110 -170q-9 -15 -27 -15q-8 0 -16 5q-15 9 -15 27q0 9 5 17l106 163l26 230q3 31 26 51.5t54 20.5
q6 0 18 -2v41q-19 11 -30 28q-11 19 -11 40q0 8 1 12q8 31 35 48q12 6 19 8q26 76 91 122.5t145 46.5t145 -46.5t91 -121.5l19 -9q27 -17 35 -48q1 -4 1 -13q0 -24 -11 -39q-11 -17 -30 -28v-41q12 2 18 2q31 0 54 -20.5t26 -51.5l26 -230l106 -163q4 -7 4 -16zM489.5 911.5
q-42.5 -25.5 -67 -68.5t-24.5 -93v-47q60 -90 152 -150q2 -2 6 -4q129 38 217 137l-1 64q0 57 -31.5 104t-84.5 69v-7q0 -5 -2 -19q-9 -25 -30.5 -40.5t-48.5 -15.5q-7 0 -11 1q-8 1 -15 6t-10 13q-2 4 -2 12q0 10 6 19q5 7 13.5 10t16.5 1q15 0 21 13v3q0 6 -3 10
q-3 7 -9 8q-50 0 -92.5 -25.5zM772 598q-64 -57 -146 -90l12 -7q8 -4 13 -11.5t5 -15.5q0 -5 -4 -15q-4 -8 -11.5 -12.5t-16.5 -4.5q-6 0 -14 3q-55 29 -95 55q-66 45 -117 103l-1 -141q6 3 18 5q23 2 43.5 -9t30.5 -31q8 -15 8 -34q0 -28 -18 -49l-81 -96q0 -51 25 -94
t68 -68t94 -25t94 25t68.5 68t25.5 94l-83 96q-17 22 -17 49q0 19 8 34q11 20 31.5 31t42.5 8q6 0 18 -4z" />
    <glyph glyph-name="uniF083" unicode="&#xf083;" horiz-adv-x="1114" 
d="M278 424.5q-9 9.5 -22 9.5t-22 -9t-9 -23v-27q-1 -13 8.5 -22t22.5 -9t22 9t9 22v27q0 13 -9 22.5zM372 822q-9 -9 -22 -9q-26 0 -44.5 -18.5t-18.5 -44.5v-215q0 -13 -9 -22t-22 -9t-22 9t-9 22v215q0 34 16.5 62.5t45 45.5t62.5 17q13 0 22.5 -9t9.5 -22t-9 -22z
M1014 423q0 57 -23 114q-16 33 -46 55.5t-67 27.5q-18 2 -28 2q-42 0 -81 -18q11 59 39 108q4 7 4 16q0 18 -15 27q-7 4 -15 4t-15.5 -4t-12.5 -11q-37 -65 -48 -143q-42 21 -90 21l-16 -1l-1 129q0 68 -33 125.5t-90.5 91t-125.5 33.5t-125.5 -33.5t-91 -91t-33.5 -125.5
v-500q0 -57 24 -107.5t67.5 -86.5t98.5 -49q28 -7 59 -7q69 0 129 36t93 99q32 -33 79 -41l13 -1q40 0 71 23q32 -21 70 -23l15 1q35 6 63.5 27.5t44.5 53.5q32 58 60 125q27 59 27 123zM461.5 100.5q-50.5 -37.5 -112.5 -37.5q-8 0 -26 2q-45 6 -82 32.5t-58 66.5t-21 86
v500q0 51 25 94t68 68t94 25t94 -25t68.5 -68t25.5 -94v-149q-38 -22 -59 -65q-2 -2 -2 -5h-95q-13 0 -22 -9t-9 -22q-1 -13 8.5 -22t22.5 -9h77q-2 -14 -2 -41q0 -69 26 -128q20 -49 48 -101q-18 -61 -68.5 -98.5zM952 432q0 -48 -23 -108q-26 -64 -57 -119
q-8 -19 -24.5 -31.5t-36.5 -17.5q-16 -1 -30 5t-24 18q-10 10 -23 10q-12 0 -22 -10q-10 -12 -24 -18t-30 -5q-20 5 -36.5 17.5t-24.5 31.5q-31 55 -57 119q-23 60 -23 108q0 42 17 77q9 20 27 33t40 16q6 1 18 1q54 0 93 -39q11 -9 23 -9q13 0 22 9q39 39 93 39q12 0 18 -1
q22 -3 40 -16.5t27 -32.5q17 -35 17 -77zM617 514q13 0 23 -10q8 -10 8 -22q0 -13 -9 -22q-4 -4 -6 -10t0 -11q1 -3 1 -10q0 -8 -3 -14q-5 -11 -19 -16q-3 -1 -9 -1q-10 0 -18.5 6t-11.5 16q-3 12 -3 24q0 38 26 62q10 8 21 8z" />
    <glyph glyph-name="uniF084" unicode="&#xf084;" horiz-adv-x="1138" 
d="M803.5 94.5q107.5 63.5 171 171t63.5 234.5t-63 235t-171 171t-235 63t-235 -63t-171 -171t-63 -235t63 -235t171 -171t235 -63t234.5 63.5zM772.5 851.5q93.5 -54.5 148 -148t54.5 -203.5t-54.5 -203.5t-148 -148t-203.5 -54.5t-203.5 54.5t-148 148t-54.5 203.5
t54.5 203.5t148 148t203.5 54.5t203.5 -54.5zM591 415.5q-9 -9.5 -22 -9.5t-22 9.5t-9 22.5v249q0 13 9 22.5t22 9.5t22 -9t9 -22v-250q0 -13 -9 -22.5zM591 335q9 -9 9 -22t-9 -22.5t-22 -9.5t-22 9t-9 22t9 22.5t22 9.5t22 -9z" />
    <glyph glyph-name="uniF085" unicode="&#xf085;" 
d="M1096 109q4 7 4 16t-4 16l-469 811q-9 15 -27 15t-27 -15l-469 -811q-4 -10 -4 -16t4 -16q10 -15 27 -15h938q17 0 27 15zM1015 156h-830l415 718zM622 384q-9 -9 -22 -9t-22 9t-9 22v219q0 13 9 22t22 9t22 -9t9 -22v-219q0 -13 -9 -22zM622 303.5q9 -9.5 9 -22.5
t-9 -22t-22 -9t-22 9t-9 22t9 22.5t22 9.5t22 -9.5z" />
    </font>
</defs>
</svg>
